<svg width="328" height="271" viewBox="0 0 328 271" fill="none" xmlns="http://www.w3.org/2000/svg">
<rect width="328" height="271" rx="20" fill="url(#paint0_linear_2041_1422)"/>
<rect x="0.3" y="0.3" width="327.4" height="270.4" rx="19.7" stroke="white" stroke-opacity="0.6" stroke-width="0.6"/>
<path d="M92.44 184.88L88.76 191.968V196H86.936V191.968L83.24 184.88H85.272L87.848 190.336L90.424 184.88H92.44ZM97.7115 196.144C96.8795 196.144 96.1275 195.957 95.4555 195.584C94.7835 195.2 94.2555 194.667 93.8715 193.984C93.4875 193.291 93.2955 192.491 93.2955 191.584C93.2955 190.688 93.4928 189.893 93.8875 189.2C94.2822 188.507 94.8208 187.973 95.5035 187.6C96.1862 187.227 96.9488 187.04 97.7915 187.04C98.6342 187.04 99.3968 187.227 100.08 187.6C100.762 187.973 101.301 188.507 101.696 189.2C102.09 189.893 102.288 190.688 102.288 191.584C102.288 192.48 102.085 193.275 101.68 193.968C101.274 194.661 100.72 195.2 100.016 195.584C99.3222 195.957 98.5542 196.144 97.7115 196.144ZM97.7115 194.56C98.1808 194.56 98.6182 194.448 99.0235 194.224C99.4395 194 99.7755 193.664 100.032 193.216C100.288 192.768 100.416 192.224 100.416 191.584C100.416 190.944 100.293 190.405 100.048 189.968C99.8022 189.52 99.4768 189.184 99.0715 188.96C98.6662 188.736 98.2288 188.624 97.7595 188.624C97.2902 188.624 96.8528 188.736 96.4475 188.96C96.0528 189.184 95.7382 189.52 95.5035 189.968C95.2688 190.405 95.1515 190.944 95.1515 191.584C95.1515 192.533 95.3915 193.269 95.8715 193.792C96.3622 194.304 96.9755 194.56 97.7115 194.56ZM112.075 187.184V196H110.251V194.96C109.963 195.323 109.584 195.611 109.115 195.824C108.656 196.027 108.165 196.128 107.643 196.128C106.949 196.128 106.325 195.984 105.771 195.696C105.227 195.408 104.795 194.981 104.475 194.416C104.165 193.851 104.011 193.168 104.011 192.368V187.184H105.819V192.096C105.819 192.885 106.016 193.493 106.411 193.92C106.805 194.336 107.344 194.544 108.027 194.544C108.709 194.544 109.248 194.336 109.643 193.92C110.048 193.493 110.251 192.885 110.251 192.096V187.184H112.075ZM122.19 187.04C122.872 187.04 123.475 187.179 123.998 187.456C124.531 187.723 124.947 188.059 125.246 188.464V187.184H127.086V196.144C127.086 196.955 126.915 197.675 126.574 198.304C126.232 198.944 125.736 199.445 125.086 199.808C124.446 200.171 123.678 200.352 122.782 200.352C121.587 200.352 120.595 200.069 119.806 199.504C119.016 198.949 118.568 198.192 118.462 197.232H120.27C120.408 197.691 120.702 198.059 121.15 198.336C121.608 198.624 122.152 198.768 122.782 198.768C123.518 198.768 124.11 198.544 124.558 198.096C125.016 197.648 125.246 196.997 125.246 196.144V194.672C124.936 195.088 124.515 195.44 123.982 195.728C123.459 196.005 122.862 196.144 122.19 196.144C121.422 196.144 120.718 195.952 120.078 195.568C119.448 195.173 118.947 194.629 118.574 193.936C118.211 193.232 118.03 192.437 118.03 191.552C118.03 190.667 118.211 189.883 118.574 189.2C118.947 188.517 119.448 187.989 120.078 187.616C120.718 187.232 121.422 187.04 122.19 187.04ZM125.246 191.584C125.246 190.976 125.118 190.448 124.862 190C124.616 189.552 124.291 189.211 123.886 188.976C123.48 188.741 123.043 188.624 122.574 188.624C122.104 188.624 121.667 188.741 121.262 188.976C120.856 189.2 120.526 189.536 120.27 189.984C120.024 190.421 119.902 190.944 119.902 191.552C119.902 192.16 120.024 192.693 120.27 193.152C120.526 193.611 120.856 193.963 121.262 194.208C121.678 194.443 122.115 194.56 122.574 194.56C123.043 194.56 123.48 194.443 123.886 194.208C124.291 193.973 124.616 193.632 124.862 193.184C125.118 192.725 125.246 192.192 125.246 191.584ZM137.561 191.376C137.561 191.707 137.54 192.005 137.497 192.272H130.761C130.815 192.976 131.076 193.541 131.545 193.968C132.015 194.395 132.591 194.608 133.273 194.608C134.255 194.608 134.948 194.197 135.353 193.376H137.321C137.055 194.187 136.569 194.853 135.865 195.376C135.172 195.888 134.308 196.144 133.273 196.144C132.431 196.144 131.673 195.957 131.001 195.584C130.34 195.2 129.817 194.667 129.433 193.984C129.06 193.291 128.873 192.491 128.873 191.584C128.873 190.677 129.055 189.883 129.417 189.2C129.791 188.507 130.308 187.973 130.969 187.6C131.641 187.227 132.409 187.04 133.273 187.04C134.105 187.04 134.847 187.221 135.497 187.584C136.148 187.947 136.655 188.459 137.017 189.12C137.38 189.771 137.561 190.523 137.561 191.376ZM135.657 190.8C135.647 190.128 135.407 189.589 134.937 189.184C134.468 188.779 133.887 188.576 133.193 188.576C132.564 188.576 132.025 188.779 131.577 189.184C131.129 189.579 130.863 190.117 130.777 190.8H135.657ZM141.484 188.672V193.552C141.484 193.883 141.559 194.123 141.708 194.272C141.868 194.411 142.135 194.48 142.508 194.48H143.628V196H142.188C141.367 196 140.738 195.808 140.3 195.424C139.863 195.04 139.644 194.416 139.644 193.552V188.672H138.604V187.184H139.644V184.992H141.484V187.184H143.628V188.672H141.484ZM151.29 188.464C151.556 188.016 151.908 187.669 152.346 187.424C152.794 187.168 153.322 187.04 153.93 187.04V188.928H153.466C152.751 188.928 152.207 189.109 151.834 189.472C151.471 189.835 151.29 190.464 151.29 191.36V196H149.466V187.184H151.29V188.464ZM163.686 191.376C163.686 191.707 163.665 192.005 163.622 192.272H156.886C156.94 192.976 157.201 193.541 157.67 193.968C158.14 194.395 158.716 194.608 159.398 194.608C160.38 194.608 161.073 194.197 161.478 193.376H163.446C163.18 194.187 162.694 194.853 161.99 195.376C161.297 195.888 160.433 196.144 159.398 196.144C158.556 196.144 157.798 195.957 157.126 195.584C156.465 195.2 155.942 194.667 155.558 193.984C155.185 193.291 154.998 192.491 154.998 191.584C154.998 190.677 155.18 189.883 155.542 189.2C155.916 188.507 156.433 187.973 157.094 187.6C157.766 187.227 158.534 187.04 159.398 187.04C160.23 187.04 160.972 187.221 161.622 187.584C162.273 187.947 162.78 188.459 163.142 189.12C163.505 189.771 163.686 190.523 163.686 191.376ZM161.782 190.8C161.772 190.128 161.532 189.589 161.062 189.184C160.593 188.779 160.012 188.576 159.318 188.576C158.689 188.576 158.15 188.779 157.702 189.184C157.254 189.579 156.988 190.117 156.902 190.8H161.782ZM177.321 187.184L174.585 196H172.665L170.889 189.488L169.113 196H167.193L164.441 187.184H166.297L168.137 194.272L170.009 187.184H171.913L173.705 194.24L175.529 187.184H177.321ZM178.076 191.552C178.076 190.667 178.258 189.883 178.62 189.2C178.994 188.517 179.495 187.989 180.124 187.616C180.764 187.232 181.468 187.04 182.236 187.04C182.93 187.04 183.532 187.179 184.044 187.456C184.567 187.723 184.983 188.059 185.292 188.464V187.184H187.132V196H185.292V194.688C184.983 195.104 184.562 195.451 184.028 195.728C183.495 196.005 182.887 196.144 182.204 196.144C181.447 196.144 180.754 195.952 180.124 195.568C179.495 195.173 178.994 194.629 178.62 193.936C178.258 193.232 178.076 192.437 178.076 191.552ZM185.292 191.584C185.292 190.976 185.164 190.448 184.908 190C184.663 189.552 184.338 189.211 183.932 188.976C183.527 188.741 183.09 188.624 182.62 188.624C182.151 188.624 181.714 188.741 181.308 188.976C180.903 189.2 180.572 189.536 180.316 189.984C180.071 190.421 179.948 190.944 179.948 191.552C179.948 192.16 180.071 192.693 180.316 193.152C180.572 193.611 180.903 193.963 181.308 194.208C181.724 194.443 182.162 194.56 182.62 194.56C183.09 194.56 183.527 194.443 183.932 194.208C184.338 193.973 184.663 193.632 184.908 193.184C185.164 192.725 185.292 192.192 185.292 191.584ZM191.352 188.464C191.619 188.016 191.971 187.669 192.408 187.424C192.856 187.168 193.384 187.04 193.992 187.04V188.928H193.528C192.813 188.928 192.269 189.109 191.896 189.472C191.533 189.835 191.352 190.464 191.352 191.36V196H189.528V187.184H191.352V188.464ZM195.061 191.552C195.061 190.667 195.242 189.883 195.605 189.2C195.978 188.517 196.479 187.989 197.109 187.616C197.749 187.232 198.458 187.04 199.237 187.04C199.813 187.04 200.378 187.168 200.933 187.424C201.498 187.669 201.946 188 202.277 188.416V184.16H204.117V196H202.277V194.672C201.978 195.099 201.562 195.451 201.029 195.728C200.506 196.005 199.903 196.144 199.221 196.144C198.453 196.144 197.749 195.952 197.109 195.568C196.479 195.173 195.978 194.629 195.605 193.936C195.242 193.232 195.061 192.437 195.061 191.552ZM202.277 191.584C202.277 190.976 202.149 190.448 201.893 190C201.647 189.552 201.322 189.211 200.917 188.976C200.511 188.741 200.074 188.624 199.605 188.624C199.135 188.624 198.698 188.741 198.293 188.976C197.887 189.2 197.557 189.536 197.301 189.984C197.055 190.421 196.933 190.944 196.933 191.552C196.933 192.16 197.055 192.693 197.301 193.152C197.557 193.611 197.887 193.963 198.293 194.208C198.709 194.443 199.146 194.56 199.605 194.56C200.074 194.56 200.511 194.443 200.917 194.208C201.322 193.973 201.647 193.632 201.893 193.184C202.149 192.725 202.277 192.192 202.277 191.584ZM214.593 191.376C214.593 191.707 214.571 192.005 214.529 192.272H207.793C207.846 192.976 208.107 193.541 208.577 193.968C209.046 194.395 209.622 194.608 210.305 194.608C211.286 194.608 211.979 194.197 212.385 193.376H214.352C214.086 194.187 213.601 194.853 212.897 195.376C212.203 195.888 211.339 196.144 210.305 196.144C209.462 196.144 208.705 195.957 208.033 195.584C207.371 195.2 206.849 194.667 206.465 193.984C206.091 193.291 205.905 192.491 205.905 191.584C205.905 190.677 206.086 189.883 206.449 189.2C206.822 188.507 207.339 187.973 208.001 187.6C208.673 187.227 209.441 187.04 210.305 187.04C211.137 187.04 211.878 187.221 212.529 187.584C213.179 187.947 213.686 188.459 214.049 189.12C214.411 189.771 214.593 190.523 214.593 191.376ZM212.689 190.8C212.678 190.128 212.438 189.589 211.969 189.184C211.499 188.779 210.918 188.576 210.225 188.576C209.595 188.576 209.057 188.779 208.609 189.184C208.161 189.579 207.894 190.117 207.809 190.8H212.689ZM215.78 191.552C215.78 190.667 215.961 189.883 216.324 189.2C216.697 188.517 217.198 187.989 217.828 187.616C218.468 187.232 219.177 187.04 219.956 187.04C220.532 187.04 221.097 187.168 221.652 187.424C222.217 187.669 222.665 188 222.996 188.416V184.16H224.836V196H222.996V194.672C222.697 195.099 222.281 195.451 221.748 195.728C221.225 196.005 220.622 196.144 219.94 196.144C219.172 196.144 218.468 195.952 217.828 195.568C217.198 195.173 216.697 194.629 216.324 193.936C215.961 193.232 215.78 192.437 215.78 191.552ZM222.996 191.584C222.996 190.976 222.868 190.448 222.612 190C222.366 189.552 222.041 189.211 221.636 188.976C221.23 188.741 220.793 188.624 220.324 188.624C219.854 188.624 219.417 188.741 219.012 188.976C218.606 189.2 218.276 189.536 218.02 189.984C217.774 190.421 217.652 190.944 217.652 191.552C217.652 192.16 217.774 192.693 218.02 193.152C218.276 193.611 218.606 193.963 219.012 194.208C219.428 194.443 219.865 194.56 220.324 194.56C220.793 194.56 221.23 194.443 221.636 194.208C222.041 193.973 222.366 193.632 222.612 193.184C222.868 192.725 222.996 192.192 222.996 191.584ZM235.084 188.672H233.452V196H231.612V188.672H230.572V187.184H231.612V186.56C231.612 185.547 231.878 184.811 232.412 184.352C232.956 183.883 233.804 183.648 234.956 183.648V185.168C234.401 185.168 234.012 185.275 233.788 185.488C233.564 185.691 233.452 186.048 233.452 186.56V187.184H235.084V188.672ZM240.524 196.144C239.692 196.144 238.94 195.957 238.268 195.584C237.596 195.2 237.068 194.667 236.684 193.984C236.3 193.291 236.108 192.491 236.108 191.584C236.108 190.688 236.305 189.893 236.7 189.2C237.095 188.507 237.633 187.973 238.316 187.6C238.999 187.227 239.761 187.04 240.604 187.04C241.447 187.04 242.209 187.227 242.892 187.6C243.575 187.973 244.113 188.507 244.508 189.2C244.903 189.893 245.1 190.688 245.1 191.584C245.1 192.48 244.897 193.275 244.492 193.968C244.087 194.661 243.532 195.2 242.828 195.584C242.135 195.957 241.367 196.144 240.524 196.144ZM240.524 194.56C240.993 194.56 241.431 194.448 241.836 194.224C242.252 194 242.588 193.664 242.844 193.216C243.1 192.768 243.228 192.224 243.228 191.584C243.228 190.944 243.105 190.405 242.86 189.968C242.615 189.52 242.289 189.184 241.884 188.96C241.479 188.736 241.041 188.624 240.572 188.624C240.103 188.624 239.665 188.736 239.26 188.96C238.865 189.184 238.551 189.52 238.316 189.968C238.081 190.405 237.964 190.944 237.964 191.584C237.964 192.533 238.204 193.269 238.684 193.792C239.175 194.304 239.788 194.56 240.524 194.56ZM248.727 188.464C248.994 188.016 249.346 187.669 249.783 187.424C250.231 187.168 250.759 187.04 251.367 187.04V188.928H250.903C250.188 188.928 249.644 189.109 249.271 189.472C248.908 189.835 248.727 190.464 248.727 191.36V196H246.903V187.184H248.727V188.464ZM85.128 209.016C84.7973 209.016 84.52 208.904 84.296 208.68C84.072 208.456 83.96 208.179 83.96 207.848C83.96 207.517 84.072 207.24 84.296 207.016C84.52 206.792 84.7973 206.68 85.128 206.68C85.448 206.68 85.72 206.792 85.944 207.016C86.168 207.24 86.28 207.517 86.28 207.848C86.28 208.179 86.168 208.456 85.944 208.68C85.72 208.904 85.448 209.016 85.128 209.016ZM86.024 210.184V219H84.2V210.184H86.024ZM87.8108 214.552C87.8108 213.667 87.9921 212.883 88.3548 212.2C88.7281 211.517 89.2294 210.989 89.8588 210.616C90.4988 210.232 91.2081 210.04 91.9868 210.04C92.5628 210.04 93.1281 210.168 93.6828 210.424C94.2481 210.669 94.6961 211 95.0268 211.416V207.16H96.8668V219H95.0268V217.672C94.7281 218.099 94.3121 218.451 93.7788 218.728C93.2561 219.005 92.6534 219.144 91.9708 219.144C91.2028 219.144 90.4988 218.952 89.8588 218.568C89.2294 218.173 88.7281 217.629 88.3548 216.936C87.9921 216.232 87.8108 215.437 87.8108 214.552ZM95.0268 214.584C95.0268 213.976 94.8988 213.448 94.6428 213C94.3974 212.552 94.0721 212.211 93.6668 211.976C93.2614 211.741 92.8241 211.624 92.3548 211.624C91.8854 211.624 91.4481 211.741 91.0428 211.976C90.6374 212.2 90.3068 212.536 90.0508 212.984C89.8054 213.421 89.6828 213.944 89.6828 214.552C89.6828 215.16 89.8054 215.693 90.0508 216.152C90.3068 216.611 90.6374 216.963 91.0428 217.208C91.4588 217.443 91.8961 217.56 92.3548 217.56C92.8241 217.56 93.2614 217.443 93.6668 217.208C94.0721 216.973 94.3974 216.632 94.6428 216.184C94.8988 215.725 95.0268 215.192 95.0268 214.584ZM107.343 214.376C107.343 214.707 107.321 215.005 107.279 215.272H100.543C100.596 215.976 100.857 216.541 101.327 216.968C101.796 217.395 102.372 217.608 103.055 217.608C104.036 217.608 104.729 217.197 105.135 216.376H107.102C106.836 217.187 106.351 217.853 105.647 218.376C104.953 218.888 104.089 219.144 103.055 219.144C102.212 219.144 101.455 218.957 100.783 218.584C100.121 218.2 99.5985 217.667 99.2145 216.984C98.8412 216.291 98.6545 215.491 98.6545 214.584C98.6545 213.677 98.8358 212.883 99.1985 212.2C99.5718 211.507 100.089 210.973 100.751 210.6C101.423 210.227 102.191 210.04 103.055 210.04C103.887 210.04 104.628 210.221 105.279 210.584C105.929 210.947 106.436 211.459 106.799 212.12C107.161 212.771 107.343 213.523 107.343 214.376ZM105.439 213.8C105.428 213.128 105.188 212.589 104.719 212.184C104.249 211.779 103.668 211.576 102.975 211.576C102.345 211.576 101.807 211.779 101.359 212.184C100.911 212.579 100.644 213.117 100.559 213.8H105.439ZM113.586 210.04C114.279 210.04 114.898 210.184 115.442 210.472C115.996 210.76 116.428 211.187 116.738 211.752C117.047 212.317 117.202 213 117.202 213.8V219H115.394V214.072C115.394 213.283 115.196 212.68 114.802 212.264C114.407 211.837 113.868 211.624 113.186 211.624C112.503 211.624 111.959 211.837 111.554 212.264C111.159 212.68 110.962 213.283 110.962 214.072V219H109.138V210.184H110.962V211.192C111.26 210.829 111.639 210.547 112.098 210.344C112.567 210.141 113.063 210.04 113.586 210.04ZM121.656 211.672V216.552C121.656 216.883 121.731 217.123 121.88 217.272C122.04 217.411 122.307 217.48 122.68 217.48H123.8V219H122.36C121.539 219 120.909 218.808 120.472 218.424C120.035 218.04 119.816 217.416 119.816 216.552V211.672H118.776V210.184H119.816V207.992H121.656V210.184H123.8V211.672H121.656ZM126.409 209.016C126.079 209.016 125.801 208.904 125.577 208.68C125.353 208.456 125.241 208.179 125.241 207.848C125.241 207.517 125.353 207.24 125.577 207.016C125.801 206.792 126.079 206.68 126.409 206.68C126.729 206.68 127.001 206.792 127.225 207.016C127.449 207.24 127.561 207.517 127.561 207.848C127.561 208.179 127.449 208.456 127.225 208.68C127.001 208.904 126.729 209.016 126.409 209.016ZM127.305 210.184V219H125.481V210.184H127.305ZM133.396 211.672H131.764V219H129.924V211.672H128.884V210.184H129.924V209.56C129.924 208.547 130.191 207.811 130.724 207.352C131.268 206.883 132.116 206.648 133.268 206.648V208.168C132.713 208.168 132.324 208.275 132.1 208.488C131.876 208.691 131.764 209.048 131.764 209.56V210.184H133.396V211.672ZM142.949 210.184L137.541 223.144H135.653L137.445 218.856L133.973 210.184H136.005L138.485 216.904L141.061 210.184H142.949ZM145.253 209.016C144.922 209.016 144.645 208.904 144.421 208.68C144.197 208.456 144.085 208.179 144.085 207.848C144.085 207.517 144.197 207.24 144.421 207.016C144.645 206.792 144.922 206.68 145.253 206.68C145.573 206.68 145.845 206.792 146.069 207.016C146.293 207.24 146.405 207.517 146.405 207.848C146.405 208.179 146.293 208.456 146.069 208.68C145.845 208.904 145.573 209.016 145.253 209.016ZM146.149 210.184V219H144.325V210.184H146.149ZM152.992 210.04C153.685 210.04 154.304 210.184 154.848 210.472C155.402 210.76 155.834 211.187 156.144 211.752C156.453 212.317 156.608 213 156.608 213.8V219H154.8V214.072C154.8 213.283 154.602 212.68 154.208 212.264C153.813 211.837 153.274 211.624 152.592 211.624C151.909 211.624 151.365 211.837 150.96 212.264C150.565 212.68 150.368 213.283 150.368 214.072V219H148.544V210.184H150.368V211.192C150.666 210.829 151.045 210.547 151.504 210.344C151.973 210.141 152.469 210.04 152.992 210.04ZM162.486 210.04C163.169 210.04 163.772 210.179 164.294 210.456C164.828 210.723 165.244 211.059 165.542 211.464V210.184H167.382V219.144C167.382 219.955 167.212 220.675 166.87 221.304C166.529 221.944 166.033 222.445 165.382 222.808C164.742 223.171 163.974 223.352 163.078 223.352C161.884 223.352 160.892 223.069 160.102 222.504C159.313 221.949 158.865 221.192 158.758 220.232H160.566C160.705 220.691 160.998 221.059 161.446 221.336C161.905 221.624 162.449 221.768 163.078 221.768C163.814 221.768 164.406 221.544 164.854 221.096C165.313 220.648 165.542 219.997 165.542 219.144V217.672C165.233 218.088 164.812 218.44 164.278 218.728C163.756 219.005 163.158 219.144 162.486 219.144C161.718 219.144 161.014 218.952 160.374 218.568C159.745 218.173 159.244 217.629 158.87 216.936C158.508 216.232 158.326 215.437 158.326 214.552C158.326 213.667 158.508 212.883 158.87 212.2C159.244 211.517 159.745 210.989 160.374 210.616C161.014 210.232 161.718 210.04 162.486 210.04ZM165.542 214.584C165.542 213.976 165.414 213.448 165.158 213C164.913 212.552 164.588 212.211 164.182 211.976C163.777 211.741 163.34 211.624 162.87 211.624C162.401 211.624 161.964 211.741 161.558 211.976C161.153 212.2 160.822 212.536 160.566 212.984C160.321 213.421 160.198 213.944 160.198 214.552C160.198 215.16 160.321 215.693 160.566 216.152C160.822 216.611 161.153 216.963 161.558 217.208C161.974 217.443 162.412 217.56 162.87 217.56C163.34 217.56 163.777 217.443 164.182 217.208C164.588 216.973 164.913 216.632 165.158 216.184C165.414 215.725 165.542 215.192 165.542 214.584ZM177.134 219.144C176.441 219.144 175.817 219.021 175.262 218.776C174.718 218.52 174.286 218.179 173.966 217.752C173.646 217.315 173.476 216.829 173.454 216.296H175.342C175.374 216.669 175.55 216.984 175.87 217.24C176.201 217.485 176.612 217.608 177.102 217.608C177.614 217.608 178.009 217.512 178.286 217.32C178.574 217.117 178.718 216.861 178.718 216.552C178.718 216.221 178.558 215.976 178.238 215.816C177.929 215.656 177.433 215.48 176.75 215.288C176.089 215.107 175.55 214.931 175.134 214.76C174.718 214.589 174.356 214.328 174.046 213.976C173.748 213.624 173.598 213.16 173.598 212.584C173.598 212.115 173.737 211.688 174.014 211.304C174.292 210.909 174.686 210.6 175.198 210.376C175.721 210.152 176.318 210.04 176.99 210.04C177.993 210.04 178.798 210.296 179.406 210.808C180.025 211.309 180.356 211.997 180.398 212.872H178.574C178.542 212.477 178.382 212.163 178.094 211.928C177.806 211.693 177.417 211.576 176.926 211.576C176.446 211.576 176.078 211.667 175.822 211.848C175.566 212.029 175.438 212.269 175.438 212.568C175.438 212.803 175.524 213 175.694 213.16C175.865 213.32 176.073 213.448 176.318 213.544C176.564 213.629 176.926 213.741 177.406 213.88C178.046 214.051 178.569 214.227 178.974 214.408C179.39 214.579 179.748 214.835 180.046 215.176C180.345 215.517 180.5 215.971 180.51 216.536C180.51 217.037 180.372 217.485 180.094 217.88C179.817 218.275 179.422 218.584 178.91 218.808C178.409 219.032 177.817 219.144 177.134 219.144ZM184.305 211.48C184.615 211.075 185.036 210.733 185.569 210.456C186.103 210.179 186.705 210.04 187.377 210.04C188.145 210.04 188.844 210.232 189.473 210.616C190.113 210.989 190.615 211.517 190.977 212.2C191.34 212.883 191.521 213.667 191.521 214.552C191.521 215.437 191.34 216.232 190.977 216.936C190.615 217.629 190.113 218.173 189.473 218.568C188.844 218.952 188.145 219.144 187.377 219.144C186.705 219.144 186.108 219.011 185.585 218.744C185.063 218.467 184.636 218.125 184.305 217.72V223.192H182.481V210.184H184.305V211.48ZM189.665 214.552C189.665 213.944 189.537 213.421 189.281 212.984C189.036 212.536 188.705 212.2 188.289 211.976C187.884 211.741 187.447 211.624 186.977 211.624C186.519 211.624 186.081 211.741 185.665 211.976C185.26 212.211 184.929 212.552 184.673 213C184.428 213.448 184.305 213.976 184.305 214.584C184.305 215.192 184.428 215.725 184.673 216.184C184.929 216.632 185.26 216.973 185.665 217.208C186.081 217.443 186.519 217.56 186.977 217.56C187.447 217.56 187.884 217.443 188.289 217.208C188.705 216.963 189.036 216.611 189.281 216.152C189.537 215.693 189.665 215.16 189.665 214.552ZM192.717 214.552C192.717 213.667 192.898 212.883 193.261 212.2C193.634 211.517 194.136 210.989 194.765 210.616C195.405 210.232 196.109 210.04 196.877 210.04C197.57 210.04 198.173 210.179 198.685 210.456C199.208 210.723 199.624 211.059 199.933 211.464V210.184H201.773V219H199.933V217.688C199.624 218.104 199.202 218.451 198.669 218.728C198.136 219.005 197.528 219.144 196.845 219.144C196.088 219.144 195.394 218.952 194.765 218.568C194.136 218.173 193.634 217.629 193.261 216.936C192.898 216.232 192.717 215.437 192.717 214.552ZM199.933 214.584C199.933 213.976 199.805 213.448 199.549 213C199.304 212.552 198.978 212.211 198.573 211.976C198.168 211.741 197.73 211.624 197.261 211.624C196.792 211.624 196.354 211.741 195.949 211.976C195.544 212.2 195.213 212.536 194.957 212.984C194.712 213.421 194.589 213.944 194.589 214.552C194.589 215.16 194.712 215.693 194.957 216.152C195.213 216.611 195.544 216.963 195.949 217.208C196.365 217.443 196.802 217.56 197.261 217.56C197.73 217.56 198.168 217.443 198.573 217.208C198.978 216.973 199.304 216.632 199.549 216.184C199.805 215.725 199.933 215.192 199.933 214.584ZM214.841 210.04C215.534 210.04 216.153 210.184 216.697 210.472C217.251 210.76 217.683 211.187 217.993 211.752C218.313 212.317 218.473 213 218.473 213.8V219H216.665V214.072C216.665 213.283 216.467 212.68 216.073 212.264C215.678 211.837 215.139 211.624 214.457 211.624C213.774 211.624 213.23 211.837 212.825 212.264C212.43 212.68 212.233 213.283 212.233 214.072V219H210.425V214.072C210.425 213.283 210.227 212.68 209.833 212.264C209.438 211.837 208.899 211.624 208.217 211.624C207.534 211.624 206.99 211.837 206.585 212.264C206.19 212.68 205.993 213.283 205.993 214.072V219H204.169V210.184H205.993V211.192C206.291 210.829 206.67 210.547 207.129 210.344C207.587 210.141 208.078 210.04 208.601 210.04C209.305 210.04 209.934 210.189 210.489 210.488C211.043 210.787 211.47 211.219 211.769 211.784C212.035 211.251 212.451 210.829 213.017 210.52C213.582 210.2 214.19 210.04 214.841 210.04Z" fill="white"/>
<path d="M98.68 109.88L95.384 121H93.32L90.984 112.584L88.504 121L86.456 121.016L83.304 109.88H85.24L87.544 118.936L90.04 109.88H92.088L94.408 118.888L96.728 109.88H98.68ZM108.264 116.376C108.264 116.707 108.243 117.005 108.2 117.272H101.464C101.518 117.976 101.779 118.541 102.248 118.968C102.718 119.395 103.294 119.608 103.976 119.608C104.958 119.608 105.651 119.197 106.056 118.376H108.024C107.758 119.187 107.272 119.853 106.568 120.376C105.875 120.888 105.011 121.144 103.976 121.144C103.134 121.144 102.376 120.957 101.704 120.584C101.043 120.2 100.52 119.667 100.136 118.984C99.763 118.291 99.5764 117.491 99.5764 116.584C99.5764 115.677 99.7577 114.883 100.12 114.2C100.494 113.507 101.011 112.973 101.672 112.6C102.344 112.227 103.112 112.04 103.976 112.04C104.808 112.04 105.55 112.221 106.2 112.584C106.851 112.947 107.358 113.459 107.72 114.12C108.083 114.771 108.264 115.523 108.264 116.376ZM106.36 115.8C106.35 115.128 106.11 114.589 105.64 114.184C105.171 113.779 104.59 113.576 103.896 113.576C103.267 113.576 102.728 113.779 102.28 114.184C101.832 114.579 101.566 115.117 101.48 115.8H106.36ZM118.04 121.144C117.208 121.144 116.456 120.957 115.784 120.584C115.112 120.2 114.584 119.667 114.2 118.984C113.816 118.291 113.624 117.491 113.624 116.584C113.624 115.688 113.821 114.893 114.216 114.2C114.61 113.507 115.149 112.973 115.832 112.6C116.514 112.227 117.277 112.04 118.12 112.04C118.962 112.04 119.725 112.227 120.408 112.6C121.09 112.973 121.629 113.507 122.024 114.2C122.418 114.893 122.616 115.688 122.616 116.584C122.616 117.48 122.413 118.275 122.008 118.968C121.602 119.661 121.048 120.2 120.344 120.584C119.65 120.957 118.882 121.144 118.04 121.144ZM118.04 119.56C118.509 119.56 118.946 119.448 119.352 119.224C119.768 119 120.104 118.664 120.36 118.216C120.616 117.768 120.744 117.224 120.744 116.584C120.744 115.944 120.621 115.405 120.376 114.968C120.13 114.52 119.805 114.184 119.4 113.96C118.994 113.736 118.557 113.624 118.088 113.624C117.618 113.624 117.181 113.736 116.776 113.96C116.381 114.184 116.066 114.52 115.832 114.968C115.597 115.405 115.48 115.944 115.48 116.584C115.48 117.533 115.72 118.269 116.2 118.792C116.69 119.304 117.304 119.56 118.04 119.56ZM128.867 112.04C129.56 112.04 130.179 112.184 130.723 112.472C131.277 112.76 131.709 113.187 132.019 113.752C132.328 114.317 132.483 115 132.483 115.8V121H130.675V116.072C130.675 115.283 130.477 114.68 130.083 114.264C129.688 113.837 129.149 113.624 128.467 113.624C127.784 113.624 127.24 113.837 126.835 114.264C126.44 114.68 126.243 115.283 126.243 116.072V121H124.419V112.184H126.243V113.192C126.541 112.829 126.92 112.547 127.379 112.344C127.848 112.141 128.344 112.04 128.867 112.04ZM136.633 109.16V121H134.809V109.16H136.633ZM146.964 112.184L141.556 125.144H139.668L141.46 120.856L137.988 112.184H140.02L142.5 118.904L145.076 112.184H146.964ZM151.889 116.552C151.889 115.667 152.07 114.883 152.433 114.2C152.806 113.517 153.308 112.989 153.937 112.616C154.577 112.232 155.281 112.04 156.049 112.04C156.742 112.04 157.345 112.179 157.857 112.456C158.38 112.723 158.796 113.059 159.105 113.464V112.184H160.945V121H159.105V119.688C158.796 120.104 158.374 120.451 157.841 120.728C157.308 121.005 156.7 121.144 156.017 121.144C155.26 121.144 154.566 120.952 153.937 120.568C153.308 120.173 152.806 119.629 152.433 118.936C152.07 118.232 151.889 117.437 151.889 116.552ZM159.105 116.584C159.105 115.976 158.977 115.448 158.721 115C158.476 114.552 158.15 114.211 157.745 113.976C157.34 113.741 156.902 113.624 156.433 113.624C155.964 113.624 155.526 113.741 155.121 113.976C154.716 114.2 154.385 114.536 154.129 114.984C153.884 115.421 153.761 115.944 153.761 116.552C153.761 117.16 153.884 117.693 154.129 118.152C154.385 118.611 154.716 118.963 155.121 119.208C155.537 119.443 155.974 119.56 156.433 119.56C156.902 119.56 157.34 119.443 157.745 119.208C158.15 118.973 158.476 118.632 158.721 118.184C158.977 117.725 159.105 117.192 159.105 116.584ZM166.541 121.144C165.847 121.144 165.223 121.021 164.669 120.776C164.125 120.52 163.693 120.179 163.373 119.752C163.053 119.315 162.882 118.829 162.861 118.296H164.749C164.781 118.669 164.957 118.984 165.277 119.24C165.607 119.485 166.018 119.608 166.509 119.608C167.021 119.608 167.415 119.512 167.693 119.32C167.981 119.117 168.125 118.861 168.125 118.552C168.125 118.221 167.965 117.976 167.645 117.816C167.335 117.656 166.839 117.48 166.157 117.288C165.495 117.107 164.957 116.931 164.541 116.76C164.125 116.589 163.762 116.328 163.453 115.976C163.154 115.624 163.005 115.16 163.005 114.584C163.005 114.115 163.143 113.688 163.421 113.304C163.698 112.909 164.093 112.6 164.605 112.376C165.127 112.152 165.725 112.04 166.397 112.04C167.399 112.04 168.205 112.296 168.813 112.808C169.431 113.309 169.762 113.997 169.805 114.872H167.981C167.949 114.477 167.789 114.163 167.501 113.928C167.213 113.693 166.823 113.576 166.333 113.576C165.853 113.576 165.485 113.667 165.229 113.848C164.973 114.029 164.845 114.269 164.845 114.568C164.845 114.803 164.93 115 165.101 115.16C165.271 115.32 165.479 115.448 165.725 115.544C165.97 115.629 166.333 115.741 166.813 115.88C167.453 116.051 167.975 116.227 168.381 116.408C168.797 116.579 169.154 116.835 169.453 117.176C169.751 117.517 169.906 117.971 169.917 118.536C169.917 119.037 169.778 119.485 169.501 119.88C169.223 120.275 168.829 120.584 168.317 120.808C167.815 121.032 167.223 121.144 166.541 121.144ZM175.376 116.6L179.44 121H176.976L173.712 117.208V121H171.888V109.16H173.712V116.04L176.912 112.184H179.44L175.376 116.6ZM188.599 113.672H186.967V121H185.127V113.672H184.087V112.184H185.127V111.56C185.127 110.547 185.394 109.811 185.927 109.352C186.471 108.883 187.319 108.648 188.471 108.648V110.168C187.916 110.168 187.527 110.275 187.303 110.488C187.079 110.691 186.967 111.048 186.967 111.56V112.184H188.599V113.672ZM194.04 121.144C193.208 121.144 192.456 120.957 191.784 120.584C191.112 120.2 190.584 119.667 190.2 118.984C189.816 118.291 189.624 117.491 189.624 116.584C189.624 115.688 189.821 114.893 190.216 114.2C190.61 113.507 191.149 112.973 191.832 112.6C192.514 112.227 193.277 112.04 194.12 112.04C194.962 112.04 195.725 112.227 196.408 112.6C197.09 112.973 197.629 113.507 198.024 114.2C198.418 114.893 198.616 115.688 198.616 116.584C198.616 117.48 198.413 118.275 198.008 118.968C197.602 119.661 197.048 120.2 196.344 120.584C195.65 120.957 194.882 121.144 194.04 121.144ZM194.04 119.56C194.509 119.56 194.946 119.448 195.352 119.224C195.768 119 196.104 118.664 196.36 118.216C196.616 117.768 196.744 117.224 196.744 116.584C196.744 115.944 196.621 115.405 196.376 114.968C196.13 114.52 195.805 114.184 195.4 113.96C194.994 113.736 194.557 113.624 194.088 113.624C193.618 113.624 193.181 113.736 192.776 113.96C192.381 114.184 192.066 114.52 191.832 114.968C191.597 115.405 191.48 115.944 191.48 116.584C191.48 117.533 191.72 118.269 192.2 118.792C192.69 119.304 193.304 119.56 194.04 119.56ZM202.243 113.464C202.509 113.016 202.861 112.669 203.299 112.424C203.747 112.168 204.275 112.04 204.883 112.04V113.928H204.419C203.704 113.928 203.16 114.109 202.787 114.472C202.424 114.835 202.243 115.464 202.243 116.36V121H200.419V112.184H202.243V113.464ZM218.796 116.376C218.796 116.707 218.774 117.005 218.732 117.272H211.996C212.049 117.976 212.31 118.541 212.78 118.968C213.249 119.395 213.825 119.608 214.508 119.608C215.489 119.608 216.182 119.197 216.588 118.376H218.556C218.289 119.187 217.804 119.853 217.1 120.376C216.406 120.888 215.542 121.144 214.508 121.144C213.665 121.144 212.908 120.957 212.236 120.584C211.574 120.2 211.052 119.667 210.668 118.984C210.294 118.291 210.108 117.491 210.108 116.584C210.108 115.677 210.289 114.883 210.652 114.2C211.025 113.507 211.542 112.973 212.204 112.6C212.876 112.227 213.644 112.04 214.508 112.04C215.34 112.04 216.081 112.221 216.732 112.584C217.382 112.947 217.889 113.459 218.252 114.12C218.614 114.771 218.796 115.523 218.796 116.376ZM216.892 115.8C216.881 115.128 216.641 114.589 216.172 114.184C215.702 113.779 215.121 113.576 214.428 113.576C213.798 113.576 213.26 113.779 212.812 114.184C212.364 114.579 212.097 115.117 212.012 115.8H216.892ZM223.791 121.144C223.097 121.144 222.473 121.021 221.919 120.776C221.375 120.52 220.943 120.179 220.623 119.752C220.303 119.315 220.132 118.829 220.111 118.296H221.999C222.031 118.669 222.207 118.984 222.527 119.24C222.857 119.485 223.268 119.608 223.759 119.608C224.271 119.608 224.665 119.512 224.943 119.32C225.231 119.117 225.375 118.861 225.375 118.552C225.375 118.221 225.215 117.976 224.895 117.816C224.585 117.656 224.089 117.48 223.407 117.288C222.745 117.107 222.207 116.931 221.791 116.76C221.375 116.589 221.012 116.328 220.703 115.976C220.404 115.624 220.255 115.16 220.255 114.584C220.255 114.115 220.393 113.688 220.671 113.304C220.948 112.909 221.343 112.6 221.855 112.376C222.377 112.152 222.975 112.04 223.647 112.04C224.649 112.04 225.455 112.296 226.063 112.808C226.681 113.309 227.012 113.997 227.055 114.872H225.231C225.199 114.477 225.039 114.163 224.751 113.928C224.463 113.693 224.073 113.576 223.583 113.576C223.103 113.576 222.735 113.667 222.479 113.848C222.223 114.029 222.095 114.269 222.095 114.568C222.095 114.803 222.18 115 222.351 115.16C222.521 115.32 222.729 115.448 222.975 115.544C223.22 115.629 223.583 115.741 224.063 115.88C224.703 116.051 225.225 116.227 225.631 116.408C226.047 116.579 226.404 116.835 226.703 117.176C227.001 117.517 227.156 117.971 227.167 118.536C227.167 119.037 227.028 119.485 226.751 119.88C226.473 120.275 226.079 120.584 225.567 120.808C225.065 121.032 224.473 121.144 223.791 121.144ZM232.338 121.144C231.644 121.144 231.02 121.021 230.466 120.776C229.922 120.52 229.49 120.179 229.17 119.752C228.85 119.315 228.679 118.829 228.658 118.296H230.546C230.578 118.669 230.754 118.984 231.074 119.24C231.404 119.485 231.815 119.608 232.306 119.608C232.818 119.608 233.212 119.512 233.49 119.32C233.778 119.117 233.922 118.861 233.922 118.552C233.922 118.221 233.762 117.976 233.442 117.816C233.132 117.656 232.636 117.48 231.954 117.288C231.292 117.107 230.754 116.931 230.338 116.76C229.922 116.589 229.559 116.328 229.25 115.976C228.951 115.624 228.802 115.16 228.802 114.584C228.802 114.115 228.94 113.688 229.218 113.304C229.495 112.909 229.89 112.6 230.402 112.376C230.924 112.152 231.522 112.04 232.194 112.04C233.196 112.04 234.002 112.296 234.61 112.808C235.228 113.309 235.559 113.997 235.602 114.872H233.778C233.746 114.477 233.586 114.163 233.298 113.928C233.01 113.693 232.62 113.576 232.13 113.576C231.65 113.576 231.282 113.667 231.026 113.848C230.77 114.029 230.642 114.269 230.642 114.568C230.642 114.803 230.727 115 230.898 115.16C231.068 115.32 231.276 115.448 231.522 115.544C231.767 115.629 232.13 115.741 232.61 115.88C233.25 116.051 233.772 116.227 234.178 116.408C234.594 116.579 234.951 116.835 235.25 117.176C235.548 117.517 235.703 117.971 235.714 118.536C235.714 119.037 235.575 119.485 235.298 119.88C235.02 120.275 234.626 120.584 234.114 120.808C233.612 121.032 233.02 121.144 232.338 121.144ZM245.764 116.376C245.764 116.707 245.743 117.005 245.7 117.272H238.964C239.018 117.976 239.279 118.541 239.748 118.968C240.218 119.395 240.794 119.608 241.476 119.608C242.458 119.608 243.151 119.197 243.556 118.376H245.524C245.258 119.187 244.772 119.853 244.068 120.376C243.375 120.888 242.511 121.144 241.476 121.144C240.634 121.144 239.876 120.957 239.204 120.584C238.543 120.2 238.02 119.667 237.636 118.984C237.263 118.291 237.076 117.491 237.076 116.584C237.076 115.677 237.258 114.883 237.62 114.2C237.994 113.507 238.511 112.973 239.172 112.6C239.844 112.227 240.612 112.04 241.476 112.04C242.308 112.04 243.05 112.221 243.7 112.584C244.351 112.947 244.858 113.459 245.22 114.12C245.583 114.771 245.764 115.523 245.764 116.376ZM243.86 115.8C243.85 115.128 243.61 114.589 243.14 114.184C242.671 113.779 242.09 113.576 241.396 113.576C240.767 113.576 240.228 113.779 239.78 114.184C239.332 114.579 239.066 115.117 238.98 115.8H243.86ZM252.007 112.04C252.701 112.04 253.319 112.184 253.863 112.472C254.418 112.76 254.85 113.187 255.159 113.752C255.469 114.317 255.623 115 255.623 115.8V121H253.815V116.072C253.815 115.283 253.618 114.68 253.223 114.264C252.829 113.837 252.29 113.624 251.607 113.624C250.925 113.624 250.381 113.837 249.975 114.264C249.581 114.68 249.383 115.283 249.383 116.072V121H247.559V112.184H249.383V113.192C249.682 112.829 250.061 112.547 250.519 112.344C250.989 112.141 251.485 112.04 252.007 112.04ZM260.078 113.672V118.552C260.078 118.883 260.153 119.123 260.302 119.272C260.462 119.411 260.729 119.48 261.102 119.48H262.222V121H260.782C259.961 121 259.331 120.808 258.894 120.424C258.457 120.04 258.238 119.416 258.238 118.552V113.672H257.198V112.184H258.238V109.992H260.078V112.184H262.222V113.672H260.078ZM264.831 111.016C264.5 111.016 264.223 110.904 263.999 110.68C263.775 110.456 263.663 110.179 263.663 109.848C263.663 109.517 263.775 109.24 263.999 109.016C264.223 108.792 264.5 108.68 264.831 108.68C265.151 108.68 265.423 108.792 265.647 109.016C265.871 109.24 265.983 109.517 265.983 109.848C265.983 110.179 265.871 110.456 265.647 110.68C265.423 110.904 265.151 111.016 264.831 111.016ZM265.727 112.184V121H263.903V112.184H265.727ZM267.514 116.552C267.514 115.667 267.695 114.883 268.058 114.2C268.431 113.517 268.933 112.989 269.562 112.616C270.202 112.232 270.906 112.04 271.674 112.04C272.367 112.04 272.97 112.179 273.482 112.456C274.005 112.723 274.421 113.059 274.73 113.464V112.184H276.57V121H274.73V119.688C274.421 120.104 273.999 120.451 273.466 120.728C272.933 121.005 272.325 121.144 271.642 121.144C270.885 121.144 270.191 120.952 269.562 120.568C268.933 120.173 268.431 119.629 268.058 118.936C267.695 118.232 267.514 117.437 267.514 116.552ZM274.73 116.584C274.73 115.976 274.602 115.448 274.346 115C274.101 114.552 273.775 114.211 273.37 113.976C272.965 113.741 272.527 113.624 272.058 113.624C271.589 113.624 271.151 113.741 270.746 113.976C270.341 114.2 270.01 114.536 269.754 114.984C269.509 115.421 269.386 115.944 269.386 116.552C269.386 117.16 269.509 117.693 269.754 118.152C270.01 118.611 270.341 118.963 270.746 119.208C271.162 119.443 271.599 119.56 272.058 119.56C272.527 119.56 272.965 119.443 273.37 119.208C273.775 118.973 274.101 118.632 274.346 118.184C274.602 117.725 274.73 117.192 274.73 116.584ZM280.79 109.16V121H278.966V109.16H280.79ZM91.976 136.192C91.976 136.757 91.8427 137.291 91.576 137.792C91.3093 138.293 90.8827 138.704 90.296 139.024C89.7093 139.333 88.9573 139.488 88.04 139.488H86.024V144H84.2V132.88H88.04C88.8933 132.88 89.6133 133.029 90.2 133.328C90.7973 133.616 91.24 134.011 91.528 134.512C91.8267 135.013 91.976 135.573 91.976 136.192ZM88.04 138C88.7333 138 89.2507 137.845 89.592 137.536C89.9333 137.216 90.104 136.768 90.104 136.192C90.104 134.976 89.416 134.368 88.04 134.368H86.024V138H88.04ZM101.796 139.376C101.796 139.707 101.774 140.005 101.732 140.272H94.9956C95.049 140.976 95.3103 141.541 95.7796 141.968C96.249 142.395 96.825 142.608 97.5076 142.608C98.489 142.608 99.1823 142.197 99.5876 141.376H101.556C101.289 142.187 100.804 142.853 100.1 143.376C99.4063 143.888 98.5423 144.144 97.5076 144.144C96.665 144.144 95.9076 143.957 95.2356 143.584C94.5743 143.2 94.0516 142.667 93.6676 141.984C93.2943 141.291 93.1076 140.491 93.1076 139.584C93.1076 138.677 93.289 137.883 93.6516 137.2C94.025 136.507 94.5423 135.973 95.2036 135.6C95.8756 135.227 96.6436 135.04 97.5076 135.04C98.3396 135.04 99.081 135.221 99.7316 135.584C100.382 135.947 100.889 136.459 101.252 137.12C101.614 137.771 101.796 138.523 101.796 139.376ZM99.8916 138.8C99.881 138.128 99.641 137.589 99.1716 137.184C98.7023 136.779 98.121 136.576 97.4276 136.576C96.7983 136.576 96.2596 136.779 95.8116 137.184C95.3636 137.579 95.097 138.117 95.0116 138.8H99.8916ZM105.415 136.464C105.681 136.016 106.033 135.669 106.471 135.424C106.919 135.168 107.447 135.04 108.055 135.04V136.928H107.591C106.876 136.928 106.332 137.109 105.959 137.472C105.596 137.835 105.415 138.464 105.415 139.36V144H103.591V135.184H105.415V136.464ZM120.403 135.04C121.097 135.04 121.715 135.184 122.259 135.472C122.814 135.76 123.246 136.187 123.555 136.752C123.875 137.317 124.035 138 124.035 138.8V144H122.227V139.072C122.227 138.283 122.03 137.68 121.635 137.264C121.241 136.837 120.702 136.624 120.019 136.624C119.337 136.624 118.793 136.837 118.387 137.264C117.993 137.68 117.795 138.283 117.795 139.072V144H115.987V139.072C115.987 138.283 115.79 137.68 115.395 137.264C115.001 136.837 114.462 136.624 113.779 136.624C113.097 136.624 112.553 136.837 112.147 137.264C111.753 137.68 111.555 138.283 111.555 139.072V144H109.731V135.184H111.555V136.192C111.854 135.829 112.233 135.547 112.691 135.344C113.15 135.141 113.641 135.04 114.163 135.04C114.867 135.04 115.497 135.189 116.051 135.488C116.606 135.787 117.033 136.219 117.331 136.784C117.598 136.251 118.014 135.829 118.579 135.52C119.145 135.2 119.753 135.04 120.403 135.04ZM127.284 134.016C126.954 134.016 126.676 133.904 126.452 133.68C126.228 133.456 126.116 133.179 126.116 132.848C126.116 132.517 126.228 132.24 126.452 132.016C126.676 131.792 126.954 131.68 127.284 131.68C127.604 131.68 127.876 131.792 128.1 132.016C128.324 132.24 128.436 132.517 128.436 132.848C128.436 133.179 128.324 133.456 128.1 133.68C127.876 133.904 127.604 134.016 127.284 134.016ZM128.18 135.184V144H126.356V135.184H128.18ZM133.775 144.144C133.082 144.144 132.458 144.021 131.903 143.776C131.359 143.52 130.927 143.179 130.607 142.752C130.287 142.315 130.116 141.829 130.095 141.296H131.983C132.015 141.669 132.191 141.984 132.511 142.24C132.842 142.485 133.252 142.608 133.743 142.608C134.255 142.608 134.65 142.512 134.927 142.32C135.215 142.117 135.359 141.861 135.359 141.552C135.359 141.221 135.199 140.976 134.879 140.816C134.57 140.656 134.074 140.48 133.391 140.288C132.73 140.107 132.191 139.931 131.775 139.76C131.359 139.589 130.996 139.328 130.687 138.976C130.388 138.624 130.239 138.16 130.239 137.584C130.239 137.115 130.378 136.688 130.655 136.304C130.932 135.909 131.327 135.6 131.839 135.376C132.362 135.152 132.959 135.04 133.631 135.04C134.634 135.04 135.439 135.296 136.047 135.808C136.666 136.309 136.996 136.997 137.039 137.872H135.215C135.183 137.477 135.023 137.163 134.735 136.928C134.447 136.693 134.058 136.576 133.567 136.576C133.087 136.576 132.719 136.667 132.463 136.848C132.207 137.029 132.079 137.269 132.079 137.568C132.079 137.803 132.164 138 132.335 138.16C132.506 138.32 132.714 138.448 132.959 138.544C133.204 138.629 133.567 138.741 134.047 138.88C134.687 139.051 135.21 139.227 135.615 139.408C136.031 139.579 136.388 139.835 136.687 140.176C136.986 140.517 137.14 140.971 137.151 141.536C137.151 142.037 137.012 142.485 136.735 142.88C136.458 143.275 136.063 143.584 135.551 143.808C135.05 144.032 134.458 144.144 133.775 144.144ZM142.322 144.144C141.629 144.144 141.005 144.021 140.45 143.776C139.906 143.52 139.474 143.179 139.154 142.752C138.834 142.315 138.663 141.829 138.642 141.296H140.53C140.562 141.669 140.738 141.984 141.058 142.24C141.389 142.485 141.799 142.608 142.29 142.608C142.802 142.608 143.197 142.512 143.474 142.32C143.762 142.117 143.906 141.861 143.906 141.552C143.906 141.221 143.746 140.976 143.426 140.816C143.117 140.656 142.621 140.48 141.938 140.288C141.277 140.107 140.738 139.931 140.322 139.76C139.906 139.589 139.543 139.328 139.234 138.976C138.935 138.624 138.786 138.16 138.786 137.584C138.786 137.115 138.925 136.688 139.202 136.304C139.479 135.909 139.874 135.6 140.386 135.376C140.909 135.152 141.506 135.04 142.178 135.04C143.181 135.04 143.986 135.296 144.594 135.808C145.213 136.309 145.543 136.997 145.586 137.872H143.762C143.73 137.477 143.57 137.163 143.282 136.928C142.994 136.693 142.605 136.576 142.114 136.576C141.634 136.576 141.266 136.667 141.01 136.848C140.754 137.029 140.626 137.269 140.626 137.568C140.626 137.803 140.711 138 140.882 138.16C141.053 138.32 141.261 138.448 141.506 138.544C141.751 138.629 142.114 138.741 142.594 138.88C143.234 139.051 143.757 139.227 144.162 139.408C144.578 139.579 144.935 139.835 145.234 140.176C145.533 140.517 145.687 140.971 145.698 141.536C145.698 142.037 145.559 142.485 145.282 142.88C145.005 143.275 144.61 143.584 144.098 143.808C143.597 144.032 143.005 144.144 142.322 144.144ZM148.597 134.016C148.266 134.016 147.989 133.904 147.765 133.68C147.541 133.456 147.429 133.179 147.429 132.848C147.429 132.517 147.541 132.24 147.765 132.016C147.989 131.792 148.266 131.68 148.597 131.68C148.917 131.68 149.189 131.792 149.413 132.016C149.637 132.24 149.749 132.517 149.749 132.848C149.749 133.179 149.637 133.456 149.413 133.68C149.189 133.904 148.917 134.016 148.597 134.016ZM149.493 135.184V144H147.669V135.184H149.493ZM155.712 144.144C154.88 144.144 154.128 143.957 153.456 143.584C152.784 143.2 152.256 142.667 151.872 141.984C151.488 141.291 151.296 140.491 151.296 139.584C151.296 138.688 151.493 137.893 151.888 137.2C152.282 136.507 152.821 135.973 153.504 135.6C154.186 135.227 154.949 135.04 155.792 135.04C156.634 135.04 157.397 135.227 158.08 135.6C158.762 135.973 159.301 136.507 159.696 137.2C160.09 137.893 160.288 138.688 160.288 139.584C160.288 140.48 160.085 141.275 159.68 141.968C159.274 142.661 158.72 143.2 158.016 143.584C157.322 143.957 156.554 144.144 155.712 144.144ZM155.712 142.56C156.181 142.56 156.618 142.448 157.024 142.224C157.44 142 157.776 141.664 158.032 141.216C158.288 140.768 158.416 140.224 158.416 139.584C158.416 138.944 158.293 138.405 158.048 137.968C157.802 137.52 157.477 137.184 157.072 136.96C156.666 136.736 156.229 136.624 155.76 136.624C155.29 136.624 154.853 136.736 154.448 136.96C154.053 137.184 153.738 137.52 153.504 137.968C153.269 138.405 153.152 138.944 153.152 139.584C153.152 140.533 153.392 141.269 153.872 141.792C154.362 142.304 154.976 142.56 155.712 142.56ZM166.539 135.04C167.232 135.04 167.851 135.184 168.395 135.472C168.949 135.76 169.381 136.187 169.691 136.752C170 137.317 170.155 138 170.155 138.8V144H168.347V139.072C168.347 138.283 168.149 137.68 167.755 137.264C167.36 136.837 166.821 136.624 166.139 136.624C165.456 136.624 164.912 136.837 164.507 137.264C164.112 137.68 163.915 138.283 163.915 139.072V144H162.091V135.184H163.915V136.192C164.213 135.829 164.592 135.547 165.051 135.344C165.52 135.141 166.016 135.04 166.539 135.04ZM175.681 144.144C174.988 144.144 174.364 144.021 173.809 143.776C173.265 143.52 172.833 143.179 172.513 142.752C172.193 142.315 172.023 141.829 172.001 141.296H173.889C173.921 141.669 174.097 141.984 174.417 142.24C174.748 142.485 175.159 142.608 175.649 142.608C176.161 142.608 176.556 142.512 176.833 142.32C177.121 142.117 177.265 141.861 177.265 141.552C177.265 141.221 177.105 140.976 176.785 140.816C176.476 140.656 175.98 140.48 175.297 140.288C174.636 140.107 174.097 139.931 173.681 139.76C173.265 139.589 172.903 139.328 172.593 138.976C172.295 138.624 172.145 138.16 172.145 137.584C172.145 137.115 172.284 136.688 172.561 136.304C172.839 135.909 173.233 135.6 173.745 135.376C174.268 135.152 174.865 135.04 175.537 135.04C176.54 135.04 177.345 135.296 177.953 135.808C178.572 136.309 178.903 136.997 178.945 137.872H177.121C177.089 137.477 176.929 137.163 176.641 136.928C176.353 136.693 175.964 136.576 175.473 136.576C174.993 136.576 174.625 136.667 174.369 136.848C174.113 137.029 173.985 137.269 173.985 137.568C173.985 137.803 174.071 138 174.241 138.16C174.412 138.32 174.62 138.448 174.865 138.544C175.111 138.629 175.473 138.741 175.953 138.88C176.593 139.051 177.116 139.227 177.521 139.408C177.937 139.579 178.295 139.835 178.593 140.176C178.892 140.517 179.047 140.971 179.057 141.536C179.057 142.037 178.919 142.485 178.641 142.88C178.364 143.275 177.969 143.584 177.457 143.808C176.956 144.032 176.364 144.144 175.681 144.144Z" fill="white"/>
<path d="M98.68 57.88L95.384 69H93.32L90.984 60.584L88.504 69L86.456 69.016L83.304 57.88H85.24L87.544 66.936L90.04 57.88H92.088L94.408 66.888L96.728 57.88H98.68ZM108.264 64.376C108.264 64.7067 108.243 65.0053 108.2 65.272H101.464C101.518 65.976 101.779 66.5413 102.248 66.968C102.718 67.3947 103.294 67.608 103.976 67.608C104.958 67.608 105.651 67.1973 106.056 66.376H108.024C107.758 67.1867 107.272 67.8533 106.568 68.376C105.875 68.888 105.011 69.144 103.976 69.144C103.134 69.144 102.376 68.9573 101.704 68.584C101.043 68.2 100.52 67.6667 100.136 66.984C99.763 66.2907 99.5764 65.4907 99.5764 64.584C99.5764 63.6773 99.7577 62.8827 100.12 62.2C100.494 61.5067 101.011 60.9733 101.672 60.6C102.344 60.2267 103.112 60.04 103.976 60.04C104.808 60.04 105.55 60.2213 106.2 60.584C106.851 60.9467 107.358 61.4587 107.72 62.12C108.083 62.7707 108.264 63.5227 108.264 64.376ZM106.36 63.8C106.35 63.128 106.11 62.5893 105.64 62.184C105.171 61.7787 104.59 61.576 103.896 61.576C103.267 61.576 102.728 61.7787 102.28 62.184C101.832 62.5787 101.566 63.1173 101.48 63.8H106.36ZM118.664 60.04C119.357 60.04 119.976 60.184 120.52 60.472C121.074 60.76 121.506 61.1867 121.816 61.752C122.125 62.3173 122.28 63 122.28 63.8V69H120.472V64.072C120.472 63.2827 120.274 62.68 119.88 62.264C119.485 61.8373 118.946 61.624 118.264 61.624C117.581 61.624 117.037 61.8373 116.632 62.264C116.237 62.68 116.04 63.2827 116.04 64.072V69H114.216V60.184H116.04V61.192C116.338 60.8293 116.717 60.5467 117.176 60.344C117.645 60.1413 118.141 60.04 118.664 60.04ZM132.686 64.376C132.686 64.7067 132.665 65.0053 132.622 65.272H125.886C125.94 65.976 126.201 66.5413 126.67 66.968C127.14 67.3947 127.716 67.608 128.398 67.608C129.38 67.608 130.073 67.1973 130.478 66.376H132.446C132.18 67.1867 131.694 67.8533 130.99 68.376C130.297 68.888 129.433 69.144 128.398 69.144C127.556 69.144 126.798 68.9573 126.126 68.584C125.465 68.2 124.942 67.6667 124.558 66.984C124.185 66.2907 123.998 65.4907 123.998 64.584C123.998 63.6773 124.18 62.8827 124.542 62.2C124.916 61.5067 125.433 60.9733 126.094 60.6C126.766 60.2267 127.534 60.04 128.398 60.04C129.23 60.04 129.972 60.2213 130.622 60.584C131.273 60.9467 131.78 61.4587 132.142 62.12C132.505 62.7707 132.686 63.5227 132.686 64.376ZM130.782 63.8C130.772 63.128 130.532 62.5893 130.062 62.184C129.593 61.7787 129.012 61.576 128.318 61.576C127.689 61.576 127.15 61.7787 126.702 62.184C126.254 62.5787 125.988 63.1173 125.902 63.8H130.782ZM137.889 67.368L140.385 60.184H142.321L138.961 69H136.785L133.441 60.184H135.393L137.889 67.368ZM151.78 64.376C151.78 64.7067 151.759 65.0053 151.716 65.272H144.98C145.033 65.976 145.295 66.5413 145.764 66.968C146.233 67.3947 146.809 67.608 147.492 67.608C148.473 67.608 149.167 67.1973 149.572 66.376H151.54C151.273 67.1867 150.788 67.8533 150.084 68.376C149.391 68.888 148.527 69.144 147.492 69.144C146.649 69.144 145.892 68.9573 145.22 68.584C144.559 68.2 144.036 67.6667 143.652 66.984C143.279 66.2907 143.092 65.4907 143.092 64.584C143.092 63.6773 143.273 62.8827 143.636 62.2C144.009 61.5067 144.527 60.9733 145.188 60.6C145.86 60.2267 146.628 60.04 147.492 60.04C148.324 60.04 149.065 60.2213 149.716 60.584C150.367 60.9467 150.873 61.4587 151.236 62.12C151.599 62.7707 151.78 63.5227 151.78 64.376ZM149.876 63.8C149.865 63.128 149.625 62.5893 149.156 62.184C148.687 61.7787 148.105 61.576 147.412 61.576C146.783 61.576 146.244 61.7787 145.796 62.184C145.348 62.5787 145.081 63.1173 144.996 63.8H149.876ZM155.399 61.464C155.666 61.016 156.018 60.6693 156.455 60.424C156.903 60.168 157.431 60.04 158.039 60.04V61.928H157.575C156.86 61.928 156.316 62.1093 155.943 62.472C155.58 62.8347 155.399 63.464 155.399 64.36V69H153.575V60.184H155.399V61.464ZM167.072 69.144C166.379 69.144 165.755 69.0213 165.2 68.776C164.656 68.52 164.224 68.1787 163.904 67.752C163.584 67.3147 163.413 66.8293 163.392 66.296H165.28C165.312 66.6693 165.488 66.984 165.808 67.24C166.139 67.4853 166.549 67.608 167.04 67.608C167.552 67.608 167.947 67.512 168.224 67.32C168.512 67.1173 168.656 66.8613 168.656 66.552C168.656 66.2213 168.496 65.976 168.176 65.816C167.867 65.656 167.371 65.48 166.688 65.288C166.027 65.1067 165.488 64.9307 165.072 64.76C164.656 64.5893 164.293 64.328 163.984 63.976C163.685 63.624 163.536 63.16 163.536 62.584C163.536 62.1147 163.675 61.688 163.952 61.304C164.229 60.9093 164.624 60.6 165.136 60.376C165.659 60.152 166.256 60.04 166.928 60.04C167.931 60.04 168.736 60.296 169.344 60.808C169.963 61.3093 170.293 61.9973 170.336 62.872H168.512C168.48 62.4773 168.32 62.1627 168.032 61.928C167.744 61.6933 167.355 61.576 166.864 61.576C166.384 61.576 166.016 61.6667 165.76 61.848C165.504 62.0293 165.376 62.2693 165.376 62.568C165.376 62.8027 165.461 63 165.632 63.16C165.803 63.32 166.011 63.448 166.256 63.544C166.501 63.6293 166.864 63.7413 167.344 63.88C167.984 64.0507 168.507 64.2267 168.912 64.408C169.328 64.5787 169.685 64.8347 169.984 65.176C170.283 65.5173 170.437 65.9707 170.448 66.536C170.448 67.0373 170.309 67.4853 170.032 67.88C169.755 68.2747 169.36 68.584 168.848 68.808C168.347 69.032 167.755 69.144 167.072 69.144ZM180.499 64.376C180.499 64.7067 180.477 65.0053 180.435 65.272H173.699C173.752 65.976 174.013 66.5413 174.483 66.968C174.952 67.3947 175.528 67.608 176.211 67.608C177.192 67.608 177.885 67.1973 178.291 66.376H180.259C179.992 67.1867 179.507 67.8533 178.803 68.376C178.109 68.888 177.245 69.144 176.211 69.144C175.368 69.144 174.611 68.9573 173.939 68.584C173.277 68.2 172.755 67.6667 172.371 66.984C171.997 66.2907 171.811 65.4907 171.811 64.584C171.811 63.6773 171.992 62.8827 172.355 62.2C172.728 61.5067 173.245 60.9733 173.907 60.6C174.579 60.2267 175.347 60.04 176.211 60.04C177.043 60.04 177.784 60.2213 178.435 60.584C179.085 60.9467 179.592 61.4587 179.955 62.12C180.317 62.7707 180.499 63.5227 180.499 64.376ZM178.595 63.8C178.584 63.128 178.344 62.5893 177.875 62.184C177.405 61.7787 176.824 61.576 176.131 61.576C175.501 61.576 174.963 61.7787 174.515 62.184C174.067 62.5787 173.8 63.1173 173.715 63.8H178.595ZM184.118 57.16V69H182.294V57.16H184.118ZM188.337 57.16V69H186.513V57.16H188.337ZM202.824 60.184L197.416 73.144H195.528L197.32 68.856L193.848 60.184H195.88L198.36 66.904L200.936 60.184H202.824ZM208.024 69.144C207.192 69.144 206.44 68.9573 205.768 68.584C205.096 68.2 204.568 67.6667 204.184 66.984C203.8 66.2907 203.608 65.4907 203.608 64.584C203.608 63.688 203.805 62.8933 204.2 62.2C204.595 61.5067 205.133 60.9733 205.816 60.6C206.499 60.2267 207.261 60.04 208.104 60.04C208.947 60.04 209.709 60.2267 210.392 60.6C211.075 60.9733 211.613 61.5067 212.008 62.2C212.403 62.8933 212.6 63.688 212.6 64.584C212.6 65.48 212.397 66.2747 211.992 66.968C211.587 67.6613 211.032 68.2 210.328 68.584C209.635 68.9573 208.867 69.144 208.024 69.144ZM208.024 67.56C208.493 67.56 208.931 67.448 209.336 67.224C209.752 67 210.088 66.664 210.344 66.216C210.6 65.768 210.728 65.224 210.728 64.584C210.728 63.944 210.605 63.4053 210.36 62.968C210.115 62.52 209.789 62.184 209.384 61.96C208.979 61.736 208.541 61.624 208.072 61.624C207.603 61.624 207.165 61.736 206.76 61.96C206.365 62.184 206.051 62.52 205.816 62.968C205.581 63.4053 205.464 63.944 205.464 64.584C205.464 65.5333 205.704 66.2693 206.184 66.792C206.675 67.304 207.288 67.56 208.024 67.56ZM222.387 60.184V69H220.563V67.96C220.275 68.3227 219.896 68.6107 219.427 68.824C218.968 69.0267 218.478 69.128 217.955 69.128C217.262 69.128 216.638 68.984 216.083 68.696C215.539 68.408 215.107 67.9813 214.787 67.416C214.478 66.8507 214.323 66.168 214.323 65.368V60.184H216.131V65.096C216.131 65.8853 216.328 66.4933 216.723 66.92C217.118 67.336 217.656 67.544 218.339 67.544C219.022 67.544 219.56 67.336 219.955 66.92C220.36 66.4933 220.563 65.8853 220.563 65.096V60.184H222.387ZM226.618 61.464C226.884 61.016 227.236 60.6693 227.674 60.424C228.122 60.168 228.65 60.04 229.258 60.04V61.928H228.794C228.079 61.928 227.535 62.1093 227.162 62.472C226.799 62.8347 226.618 63.464 226.618 64.36V69H224.794V60.184H226.618V61.464ZM234.483 64.552C234.483 63.6667 234.664 62.8827 235.027 62.2C235.4 61.5173 235.901 60.9893 236.531 60.616C237.171 60.232 237.88 60.04 238.659 60.04C239.235 60.04 239.8 60.168 240.355 60.424C240.92 60.6693 241.368 61 241.699 61.416V57.16H243.539V69H241.699V67.672C241.4 68.0987 240.984 68.4507 240.451 68.728C239.928 69.0053 239.325 69.144 238.643 69.144C237.875 69.144 237.171 68.952 236.531 68.568C235.901 68.1733 235.4 67.6293 235.027 66.936C234.664 66.232 234.483 65.4373 234.483 64.552ZM241.699 64.584C241.699 63.976 241.571 63.448 241.315 63C241.069 62.552 240.744 62.2107 240.339 61.976C239.933 61.7413 239.496 61.624 239.027 61.624C238.557 61.624 238.12 61.7413 237.715 61.976C237.309 62.2 236.979 62.536 236.723 62.984C236.477 63.4213 236.355 63.944 236.355 64.552C236.355 65.16 236.477 65.6933 236.723 66.152C236.979 66.6107 237.309 66.9627 237.715 67.208C238.131 67.4427 238.568 67.56 239.027 67.56C239.496 67.56 239.933 67.4427 240.339 67.208C240.744 66.9733 241.069 66.632 241.315 66.184C241.571 65.7253 241.699 65.192 241.699 64.584ZM245.326 64.552C245.326 63.6667 245.508 62.8827 245.87 62.2C246.244 61.5173 246.745 60.9893 247.374 60.616C248.014 60.232 248.718 60.04 249.486 60.04C250.18 60.04 250.782 60.1787 251.294 60.456C251.817 60.7227 252.233 61.0587 252.542 61.464V60.184H254.382V69H252.542V67.688C252.233 68.104 251.812 68.4507 251.278 68.728C250.745 69.0053 250.137 69.144 249.454 69.144C248.697 69.144 248.004 68.952 247.374 68.568C246.745 68.1733 246.244 67.6293 245.87 66.936C245.508 66.232 245.326 65.4373 245.326 64.552ZM252.542 64.584C252.542 63.976 252.414 63.448 252.158 63C251.913 62.552 251.588 62.2107 251.182 61.976C250.777 61.7413 250.34 61.624 249.87 61.624C249.401 61.624 248.964 61.7413 248.558 61.976C248.153 62.2 247.822 62.536 247.566 62.984C247.321 63.4213 247.198 63.944 247.198 64.552C247.198 65.16 247.321 65.6933 247.566 66.152C247.822 66.6107 248.153 66.9627 248.558 67.208C248.974 67.4427 249.412 67.56 249.87 67.56C250.34 67.56 250.777 67.4427 251.182 67.208C251.588 66.9733 251.913 66.632 252.158 66.184C252.414 65.7253 252.542 65.192 252.542 64.584ZM258.906 61.672V66.552C258.906 66.8827 258.981 67.1227 259.13 67.272C259.29 67.4107 259.557 67.48 259.93 67.48H261.05V69H259.61C258.789 69 258.159 68.808 257.722 68.424C257.285 68.04 257.066 67.416 257.066 66.552V61.672H256.026V60.184H257.066V57.992H258.906V60.184H261.05V61.672H258.906ZM262.123 64.552C262.123 63.6667 262.305 62.8827 262.667 62.2C263.041 61.5173 263.542 60.9893 264.171 60.616C264.811 60.232 265.515 60.04 266.283 60.04C266.977 60.04 267.579 60.1787 268.091 60.456C268.614 60.7227 269.03 61.0587 269.339 61.464V60.184H271.179V69H269.339V67.688C269.03 68.104 268.609 68.4507 268.075 68.728C267.542 69.0053 266.934 69.144 266.251 69.144C265.494 69.144 264.801 68.952 264.171 68.568C263.542 68.1733 263.041 67.6293 262.667 66.936C262.305 66.232 262.123 65.4373 262.123 64.552ZM269.339 64.584C269.339 63.976 269.211 63.448 268.955 63C268.71 62.552 268.385 62.2107 267.979 61.976C267.574 61.7413 267.137 61.624 266.667 61.624C266.198 61.624 265.761 61.7413 265.355 61.976C264.95 62.2 264.619 62.536 264.363 62.984C264.118 63.4213 263.995 63.944 263.995 64.552C263.995 65.16 264.118 65.6933 264.363 66.152C264.619 66.6107 264.95 66.9627 265.355 67.208C265.771 67.4427 266.209 67.56 266.667 67.56C267.137 67.56 267.574 67.4427 267.979 67.208C268.385 66.9733 268.71 66.632 268.955 66.184C269.211 65.7253 269.339 65.192 269.339 64.584Z" fill="white"/>
<path d="M48.49 197.63C48.31 194.84 47.18 192.12 45.06 190C42.92 192.14 41.74 194.86 41.51 197.63C42.79 198.31 43.97 199.19 45 200.26C46.03 199.2 47.21 198.32 48.49 197.63ZM45.05 193.19C45.68 194.22 46.12 195.37 46.35 196.57C45.88 196.87 45.44 197.2 45.01 197.55C44.59 197.21 44.14 196.88 43.68 196.58C43.93 195.38 44.39 194.23 45.05 193.19ZM45 203.45C44.18 202.2 43.14 201.11 41.94 200.25C41.81 200.16 41.67 200.09 41.54 199.99C41.67 200.08 41.81 200.16 41.93 200.24C39.98 198.83 37.59 198 35 198C35 203.32 38.36 207.82 43.03 209.49C43.66 209.72 44.32 209.89 45 210C45.68 209.88 46.33 209.71 46.97 209.49C51.64 207.82 55 203.32 55 198C50.82 198 47.15 200.17 45 203.45ZM46.32 207.6C45.88 207.75 45.44 207.87 44.99 207.97C44.55 207.88 44.12 207.76 43.71 207.61C40.42 206.43 38.01 203.62 37.26 200.26C38.36 200.52 39.41 200.97 40.38 201.59L40.36 201.6C40.49 201.69 40.62 201.78 40.75 201.85L40.82 201.89C41.81 202.61 42.66 203.5 43.33 204.54L45 207.1L46.67 204.55C47.36 203.5 48.22 202.6 49.2 201.89L49.27 201.84C49.36 201.79 49.45 201.73 49.54 201.67L49.53 201.65C50.51 201 51.6 200.52 52.74 200.25C51.99 203.62 49.59 206.43 46.32 207.6ZM41.99 200.28C41.97 200.27 41.95 200.25 41.94 200.24C41.94 200.24 41.95 200.24 41.95 200.25C41.96 200.26 41.97 200.27 41.99 200.28Z" fill="white"/>
<path d="M51.5 113H41.5C40.4 113 39.5 113.9 39.5 115V118H41.5V116H51.5V132H41.5V130H39.5V133C39.5 134.1 40.4 135 41.5 135H51.5C52.6 135 53.5 134.1 53.5 133V115C53.5 113.9 52.6 113 51.5 113ZM43.3 123V121.5C43.3 120.1 41.9 119 40.5 119C39.1 119 37.7 120.1 37.7 121.5V123C37.1 123 36.5 123.6 36.5 124.2V127.7C36.5 128.4 37.1 129 37.7 129H43.2C43.9 129 44.5 128.4 44.5 127.8V124.3C44.5 123.6 43.9 123 43.3 123ZM42 123H39V121.5C39 120.7 39.7 120.2 40.5 120.2C41.3 120.2 42 120.7 42 121.5V123Z" fill="white"/>
<path d="M49.71 58.1101L51.3 59.7001L52.71 58.2901L48.71 54.2901L44.71 58.2901L46.12 59.7001L47.71 58.1101V62.4601L49.71 64.4601V58.1101Z" fill="white"/>
<path d="M35.1 55.5101L41.71 62.1201V68.4701L40.12 66.8801L38.71 68.2901L42.71 72.2901L46.71 68.2901L45.3 66.8801L43.71 68.4701V64.1201L53.49 73.9001L54.9 72.4801L36.52 54.1001L35.1 55.5101Z" fill="white"/>
<defs>
<linearGradient id="paint0_linear_2041_1422" x1="164" y1="0" x2="164" y2="271" gradientUnits="userSpaceOnUse">
<stop stop-color="#9747FF" stop-opacity="0.4"/>
<stop offset="1" stop-color="#9747FF" stop-opacity="0.4"/>
</linearGradient>
</defs>
</svg>
