<svg width="134" height="144" viewBox="0 0 134 144" fill="none" xmlns="http://www.w3.org/2000/svg">
<path d="M110.678 121.259C102.327 126.214 92.2635 128.579 81.3876 127.434C79.9235 127.282 78.5098 127.076 77.0416 126.819C68.388 125.225 60.1742 121.53 52.8928 116.341C48.2352 113.03 43.9177 109.082 40.2041 104.59C33.4947 96.6711 28.3599 87.1998 25.6749 76.9396C24.5893 73.0756 23.9497 69.1245 23.5859 65.0767C23.4979 64.1427 23.46 63.1547 23.4241 62.2184C23.2087 56.6027 23.6792 51.2206 24.8397 46.177C28.0572 32.3054 36.166 21.0581 47.2665 14.4873L33.3679 22.7798C22.2674 29.3509 14.1583 40.5979 10.9932 54.4675C9.78058 59.5131 9.31005 64.8952 9.52552 70.5112C9.56143 71.4472 9.64939 72.3812 9.73735 73.3151C10.0488 77.3649 10.7743 81.3471 11.7561 85.2151C14.5472 95.5233 19.5961 104.964 26.3052 112.882C30.019 117.375 34.2845 121.325 38.9422 124.636C56.4369 137.224 78.9924 140.077 96.7273 129.553L110.678 121.259Z" fill="#F3A250"/>
<path d="M134.469 73.5292C133.155 40.6153 107.246 11.4051 76.5562 8.25996C45.9205 5.16492 22.1123 29.3565 23.4252 62.218C24.7401 95.1319 50.7013 124.34 81.3887 127.433C112.026 130.58 135.784 106.443 134.469 73.5292Z" fill="#FFD475"/>
<path d="M76.2617 11.0615C49.0407 7.81715 24.9118 29.6095 26.2222 62.1015C27.4619 93.6211 52.3418 121.701 81.6621 124.661C111.459 127.502 132.891 104.166 131.662 73.6611C130.422 42.1416 105.542 14.0615 76.2617 11.0615ZM80.4219 114.301C56.6621 111.901 36.5019 89.2612 35.4619 63.8613C34.4799 38.7118 52.2605 19.2155 77.5019 21.3813C101.262 23.8213 121.382 46.501 122.422 71.9014C123.472 98.6464 103.515 116.869 80.4219 114.301Z" fill="#FFB961"/>
<path d="M119.618 72.0171C118.64 47.8912 99.6443 26.4875 77.2148 24.1714C54.7349 21.9093 37.2914 39.6072 38.2692 63.7331C39.2469 87.8591 58.2427 109.263 80.7223 111.525C103.152 113.841 120.594 96.091 119.618 72.0171Z" fill="#F3A250"/>
<path d="M119.622 72.0166C118.644 47.8907 99.648 26.487 77.2185 24.1709C64.1487 22.8497 52.744 28.2863 45.7673 37.8237C52.6217 31.8843 61.7742 28.8255 71.9677 29.8403C94.3976 32.1564 113.393 53.56 114.371 77.686C114.756 87.7219 111.975 96.6816 106.875 103.543C115.195 96.4538 120.178 85.1707 119.622 72.0166ZM77.0425 126.82C68.3889 125.225 60.175 121.53 52.8937 116.342L38.943 124.636C46.2264 129.877 54.4379 133.52 63.0918 135.114L77.0425 126.82ZM40.205 104.59C33.4956 96.6717 28.3607 87.2004 25.6757 76.9403L11.757 85.2158C14.5481 95.5239 19.597 104.965 26.306 112.883L40.205 104.59Z" fill="#DD8536"/>
<path d="M24.8397 46.1768L10.9932 54.4672C9.78058 59.5129 9.31005 64.8949 9.52552 70.511C9.56143 71.447 9.64939 72.3809 9.73735 73.3149L23.5859 65.0764C23.4979 64.1425 23.46 63.1545 23.4241 62.2182C23.2087 56.6024 23.6792 51.2204 24.8397 46.1768Z" fill="#DD8536"/>
<path d="M42.332 47.5052C42.5988 46.9258 43.4219 46.9334 43.6867 47.5153C45.0525 50.5165 46.2308 52.9572 46.4389 52.8723C46.6281 52.7951 45.7767 50.2295 44.6721 47.1316C44.4577 46.5304 45.0409 45.951 45.635 46.1783C51.6899 48.4946 57.2516 50.5082 57.4074 50.1352C57.5572 49.7767 52.2358 47.1596 46.3605 44.4132C45.7832 44.1433 45.7881 43.3167 46.3664 43.0523C49.3324 41.6959 51.7544 40.5206 51.6692 40.3115C51.5919 40.1212 49.0406 40.9693 45.9604 42.0702C45.3626 42.2838 44.7842 41.6963 45.0087 41.1001C50.8722 25.5249 50.1439 25.4089 43.25 40.3661C42.983 40.9453 42.1603 40.9379 41.8955 40.3561C40.5372 37.3721 39.3632 34.9343 39.1742 35.0114C38.9664 35.0961 39.8185 37.6704 40.93 40.7459C41.1475 41.3476 40.5641 41.9297 39.9686 41.7022C33.9257 39.3932 28.3399 37.3835 28.1902 37.742C28.0343 38.1148 33.375 40.7258 39.2416 43.4662C39.8184 43.7356 39.8142 44.5612 39.2371 44.8266C36.263 46.1942 33.8354 47.3688 33.9128 47.5591C33.9978 47.768 36.5568 46.9195 39.6182 45.8021C40.2167 45.5836 40.7996 46.1716 40.5745 46.77C34.7775 62.1838 35.3514 62.6641 42.332 47.5052Z" fill="white"/>
<g opacity="0.7">
<path d="M67.3868 98.8582C72.5478 101.926 77.1319 103.297 76.0234 105.396C74.9266 107.473 69.7771 106.738 64.616 103.67C59.4552 100.602 57.0016 96.4177 58.0984 94.3409C59.2069 92.242 62.2259 95.7902 67.3868 98.8582Z" fill="white"/>
</g>
<g opacity="0.7">
<path d="M52.1125 88.3118C53.0426 87.5859 54.6139 88.05 55.6244 89.3164C56.6349 90.5827 56.7098 92.1815 55.7797 92.9074C54.8688 93.6183 53.3137 93.1747 52.3032 91.9084C51.2927 90.6421 51.2016 89.0227 52.1125 88.3118Z" fill="white"/>
</g>
<path d="M58.2512 58.1009C58.5516 56.0119 60.1434 53.321 62.1358 52.417C62.8363 55.4252 61.1092 57.6965 58.2512 58.1009ZM100.243 77.6645C100.243 77.6645 100.812 83.8042 95.8042 85.5372C90.7966 87.2701 100.243 77.6645 100.243 77.6645Z" fill="#DD8536"/>
<path d="M98.5625 82.3151C98.3828 83.0228 98.0468 83.6772 97.5618 84.1982C97.1132 84.7634 96.5118 85.2344 95.804 85.5369C88.5618 88.1423 80.8617 90.4689 72.8254 92.4866C69.4851 93.1468 66.988 90.8563 66.4019 88.1768C64.3484 79.1341 61.6602 69.9986 58.507 61.1451C57.3672 58.107 58.9301 55.3065 61.7178 54.4293C69.7038 52.5279 77.1089 50.3771 83.8124 47.9672C85.9833 47.1791 88.9994 48.6504 90.1301 51.6263C93.4795 60.5363 96.3334 69.6058 98.7095 78.6349C99.0489 80.118 98.9627 80.8688 98.5625 82.3151Z" fill="#DD8536"/>
<path d="M97.0839 83.1773C89.8417 85.7828 82.1417 88.1093 74.1053 90.1271C70.9757 90.7456 68.3139 88.7069 67.6819 85.8173C65.6283 76.7745 62.9402 67.639 59.787 58.7855C58.6548 55.768 60.1849 52.9548 62.9978 52.0698C70.9837 50.1684 78.3888 48.0175 85.0924 45.6076C87.2254 44.8333 90.2521 46.2192 91.41 49.2667C94.7594 58.1767 97.6133 67.2462 99.9894 76.2753C100.711 79.4291 99.3425 82.2123 97.0839 83.1773Z" fill="#F8F9FE"/>
<path d="M71.2681 88.2235C74.9622 81.4642 78.214 74.6444 81.0218 67.7637C87.0412 71.6543 92.8062 75.566 98.3256 79.5055C98.0192 80.5434 97.3358 81.3187 96.4533 81.6931C89.3581 84.2458 81.7846 86.5456 73.7241 88.5768C72.8708 88.7658 72.0231 88.6848 71.2681 88.2235Z" fill="#B0B8CF"/>
<path d="M81.0236 67.7617C83.7311 61.0792 86.0343 54.3112 87.9315 47.459C88.7425 47.8899 89.4795 48.7294 89.9447 49.8663C93.2106 58.6298 96.0473 67.5676 98.4249 76.6785C98.6903 77.6969 98.6527 78.6755 98.3275 79.5035C92.8079 75.5661 87.043 71.653 81.0236 67.7617Z" fill="#C9CEE2"/>
<path d="M87.9392 47.4414C86.0555 54.307 83.7124 61.0869 81.0288 67.7707C74.7393 63.6778 68.1573 59.6353 61.2249 55.5949C61.657 54.5785 62.4401 53.9101 63.4818 53.579C71.3635 51.7207 78.7627 49.5742 85.6251 47.1327C86.3829 46.8743 87.1679 46.9935 87.9392 47.4414Z" fill="#E3E7F0"/>
<path d="M61.2377 55.5898C68.1394 59.6305 74.7299 63.6898 81.0244 67.7624C78.2156 74.6421 74.9653 81.4623 71.2707 88.2223C70.3342 87.7001 69.5178 86.7386 69.2667 85.4933C67.1309 76.1942 64.4584 67.1092 61.2867 58.235C60.922 57.3048 60.9338 56.3695 61.2377 55.5898Z" fill="#C9CEE2"/>
<path d="M78.7724 73.0528C78.7724 73.0528 81.0417 67.6649 86.5135 71.3638C86.5135 71.3638 81.1908 67.7979 83.1847 62.1719C83.1847 62.1719 81.0121 67.6604 75.686 64.3567C79.2853 66.5498 80.3635 69.4046 78.7724 73.0528Z" fill="#F1F6FA"/>
<g clip-path="url(#clip0_589_2128)" filter="url(#filter0_f_589_2128)">
<path d="M16.994 127.895C16.0181 128.659 14.7828 129.123 13.3874 129.156C13.1995 129.161 13.0172 129.158 12.8272 129.149C11.7057 129.089 10.6055 128.756 9.59884 128.218C8.95509 127.875 8.34395 127.446 7.80037 126.938C6.8215 126.045 6.01653 124.93 5.50878 123.676C5.30813 123.204 5.16253 122.715 5.05025 122.208C5.02383 122.091 5.00287 121.967 4.983 121.849C4.86384 121.142 4.83534 120.453 4.89973 119.795C5.08005 117.987 5.92247 116.43 7.22012 115.417L5.59644 116.694C4.2988 117.707 3.45633 119.264 3.28261 121.071C3.21167 121.73 3.24017 122.419 3.35933 123.126C3.37919 123.244 3.4056 123.361 3.43202 123.478C3.53771 123.985 3.6947 124.477 3.88227 124.951C4.40425 126.21 5.19783 127.323 6.17666 128.215C6.72027 128.723 7.32486 129.153 7.96861 129.496C10.3892 130.803 13.291 130.796 15.3638 129.173L16.994 127.895Z" fill="#F3A250"/>
<path d="M19.2246 121.464C18.5196 117.319 14.762 114.045 10.8257 114.149C6.89702 114.258 4.27908 117.71 4.98295 121.849C5.68792 125.993 9.45212 129.266 13.3873 129.155C17.317 129.053 19.9295 125.608 19.2246 121.464Z" fill="#FFD475"/>
<path d="M10.8346 114.509C7.33574 114.544 4.63794 117.697 5.33544 121.789C6.00809 125.758 9.61695 128.906 13.3769 128.801C17.1953 128.673 19.5264 125.368 18.8717 121.527C18.199 117.557 14.5901 114.41 10.8346 114.509ZM13.0504 127.509C10.0035 127.594 7.08109 125.058 6.53384 121.86C5.99805 118.693 7.92981 115.934 11.1604 115.795C14.208 115.715 17.126 118.257 17.6732 121.455C18.2437 124.823 16.0156 127.457 13.0504 127.509Z" fill="#FFB961"/>
<path d="M17.3198 121.515C16.8013 118.477 14.0465 116.079 11.1694 116.152C8.28678 116.234 6.36826 118.76 6.88677 121.798C7.40528 124.836 10.1601 127.234 13.0427 127.153C15.9198 127.079 17.8373 124.547 17.3198 121.515Z" fill="#F3A250"/>
<path d="M17.3204 121.515C16.8019 118.477 14.0471 116.078 11.17 116.152C9.49392 116.199 8.13921 117.073 7.41211 118.395C8.1826 117.531 9.29111 116.994 10.5981 116.956C13.4752 116.882 16.23 119.28 16.7485 122.318C16.9615 123.582 16.7561 124.762 16.2227 125.714C17.1599 124.681 17.6061 123.171 17.3204 121.515ZM12.8272 129.149C11.7057 129.088 10.6055 128.755 9.59889 128.217L7.96866 129.496C8.97638 130.04 10.0754 130.367 11.197 130.427L12.8272 129.149ZM7.80042 126.938C6.82155 126.045 6.01659 124.93 5.50883 123.675L3.88233 124.95C4.4043 126.21 5.19788 127.322 6.17671 128.215L7.80042 126.938Z" fill="#DD8536"/>
<path d="M4.89942 119.795L3.2823 121.071C3.21136 121.729 3.23985 122.418 3.35902 123.125C3.37888 123.243 3.40529 123.36 3.43171 123.477L5.04993 122.207C5.02352 122.091 5.00255 121.966 4.98269 121.848C4.86353 121.141 4.83503 120.452 4.89942 119.795Z" fill="#DD8536"/>
<path d="M7.13556 119.677C7.15986 119.599 7.26416 119.587 7.30721 119.656C7.5292 120.014 7.7183 120.303 7.74325 120.289C7.76594 120.276 7.61618 119.965 7.42567 119.591C7.38869 119.519 7.45303 119.436 7.53195 119.455C8.33632 119.649 9.07329 119.813 9.08691 119.763C9.10001 119.715 8.38358 119.471 7.59491 119.22C7.51742 119.195 7.50452 119.09 7.57339 119.047C7.92665 118.827 8.21401 118.639 8.19981 118.614C8.1869 118.591 7.87783 118.74 7.50593 118.93C7.43375 118.966 7.35093 118.902 7.36959 118.822C7.85698 116.755 7.76289 116.752 7.13496 118.758C7.11064 118.836 7.00637 118.848 6.96333 118.779C6.74256 118.424 6.55406 118.134 6.53141 118.147C6.50649 118.161 6.65647 118.473 6.84749 118.844C6.88486 118.917 6.82055 119 6.74144 118.981C5.93872 118.788 5.19876 118.625 5.18567 118.673C5.17205 118.722 5.89081 118.965 6.67827 119.216C6.75569 119.241 6.76868 119.346 6.69997 119.389C6.34587 119.61 6.05778 119.799 6.0707 119.822C6.08487 119.847 6.39492 119.697 6.76417 119.506C6.83636 119.468 6.91975 119.533 6.90106 119.613C6.41945 121.659 6.49994 121.71 7.13556 119.677Z" fill="white"/>
<g opacity="0.7">
<path d="M11.1473 125.767C11.8508 126.071 12.4535 126.17 12.3476 126.453C12.2427 126.734 11.5788 126.726 10.8753 126.422C10.1718 126.118 9.79279 125.628 9.89765 125.347C10.0036 125.063 10.4438 125.463 11.1473 125.767Z" fill="white"/>
</g>
<g opacity="0.7">
<path d="M9.04162 124.683C9.14747 124.576 9.35397 124.609 9.50261 124.752C9.65124 124.896 9.68688 125.097 9.58102 125.204C9.47734 125.309 9.27323 125.279 9.1246 125.135C8.97597 124.991 8.93794 124.788 9.04162 124.683Z" fill="white"/>
</g>
<path d="M9.3242 120.758C9.32805 120.488 9.48552 120.122 9.72294 119.975C9.86084 120.344 9.67937 120.66 9.3242 120.758ZM14.9599 122.547C14.9599 122.547 15.1323 123.315 14.5268 123.616C13.9212 123.917 14.9599 122.547 14.9599 122.547Z" fill="#DD8536"/>
<path d="M14.8233 123.163C14.8121 123.256 14.7803 123.344 14.7275 123.418C14.6799 123.497 14.6115 123.566 14.5268 123.616C13.6527 124.064 12.7161 124.485 11.7318 124.872C11.3198 125.01 10.9662 124.761 10.8482 124.431C10.4403 123.32 9.95052 122.208 9.40651 121.139C9.21252 120.773 9.36454 120.393 9.70307 120.236C10.6829 119.865 11.585 119.471 12.3942 119.057C12.6561 118.921 13.062 119.058 13.2538 119.416C13.8235 120.49 14.3332 121.591 14.7817 122.695C14.8489 122.877 14.8503 122.974 14.8233 123.163Z" fill="#DD8536"/>
<path d="M14.6504 123.297C13.7763 123.745 12.8397 124.166 11.8554 124.553C11.4694 124.682 11.0991 124.468 10.9718 124.112C10.5639 123.001 10.0741 121.889 9.5301 120.82C9.33742 120.456 9.48507 120.075 9.82666 119.917C10.8065 119.546 11.7086 119.152 12.5178 118.737C12.7751 118.604 13.1809 118.73 13.3774 119.097C13.9471 120.17 14.4568 121.272 14.9053 122.376C15.0483 122.763 14.9206 123.138 14.6504 123.297Z" fill="#F8F9FE"/>
<path d="M11.4648 124.357C11.8218 123.441 12.1219 122.525 12.3647 121.608C13.1904 122.002 13.9841 122.403 14.7473 122.811C14.7255 122.948 14.6516 123.057 14.5461 123.119C13.6897 123.558 12.7686 123.973 11.7815 124.362C11.6766 124.4 11.5679 124.404 11.4648 124.357Z" fill="#B0B8CF"/>
<path d="M12.3653 121.608C12.5987 120.718 12.7795 119.823 12.9075 118.925C13.0172 118.966 13.1243 119.061 13.2017 119.197C13.7585 120.253 14.2639 121.338 14.7139 122.452C14.7642 122.577 14.7754 122.701 14.7478 122.811C13.9847 122.403 13.1909 122.002 12.3653 121.608Z" fill="#C9CEE2"/>
<path d="M12.908 118.923C12.7819 119.823 12.5962 120.719 12.3659 121.609C11.5027 121.194 10.6034 120.79 9.65976 120.392C9.69784 120.256 9.78602 120.159 9.91246 120.1C10.8798 119.736 11.7813 119.343 12.61 118.922C12.7017 118.876 12.803 118.879 12.908 118.923Z" fill="#E3E7F0"/>
<path d="M9.66135 120.391C10.6011 120.789 11.5018 121.195 12.3652 121.608C12.1222 122.525 11.8224 123.441 11.4653 124.357C11.3382 124.307 11.2191 124.198 11.167 124.045C10.7445 122.903 10.2575 121.796 9.71083 120.725C9.64945 120.613 9.63564 120.494 9.66135 120.391Z" fill="#C9CEE2"/>
<path d="M12.1666 122.314C12.1666 122.314 12.3657 121.595 13.1189 121.974C13.1189 121.974 12.3868 121.609 12.5471 120.865C12.5471 120.865 12.3619 121.595 11.6336 121.264C12.1251 121.483 12.3083 121.826 12.1666 122.314Z" fill="#F1F6FA"/>
</g>
<defs>
<filter id="filter0_f_589_2128" x="-1" y="109.999" width="24.5844" height="24.585" filterUnits="userSpaceOnUse" color-interpolation-filters="sRGB">
<feFlood flood-opacity="0" result="BackgroundImageFix"/>
<feBlend mode="normal" in="SourceGraphic" in2="BackgroundImageFix" result="shape"/>
<feGaussianBlur stdDeviation="1" result="effect1_foregroundBlur_589_2128"/>
</filter>
<clipPath id="clip0_589_2128">
<rect width="18.3799" height="18.3799" fill="white" transform="translate(1 114.355) rotate(-7.36495)"/>
</clipPath>
</defs>
</svg>
