<svg width="65" height="59" viewBox="0 0 65 59" fill="none" xmlns="http://www.w3.org/2000/svg">
<path d="M54.2579 49.2497C50.6269 51.4044 46.2509 52.4326 41.5219 51.9347C40.8852 51.8686 40.2705 51.779 39.6321 51.6676C35.8693 50.9742 32.2978 49.3676 29.1317 47.1114C27.1065 45.6719 25.2291 43.9551 23.6144 42.0017C20.697 38.5585 18.4642 34.4402 17.2967 29.9788C16.8247 28.2987 16.5466 26.5807 16.3884 24.8206C16.3502 24.4145 16.3337 23.9849 16.3181 23.5778C16.2244 21.1359 16.429 18.7957 16.9336 16.6026C18.3326 10.5709 21.8585 5.68037 26.6852 2.82324L20.6418 6.42899C15.8151 9.28626 12.2891 14.1767 10.9128 20.2075C10.3856 22.4014 10.181 24.7417 10.2747 27.1836C10.2903 27.5906 10.3285 27.9967 10.3668 28.4028C10.5022 30.1638 10.8177 31.8953 11.2446 33.5772C12.4582 38.0594 14.6536 42.1644 17.5708 45.6075C19.1857 47.5608 21.0404 49.2786 23.0656 50.7181C30.6727 56.1916 40.4803 57.4324 48.1919 52.8564L54.2579 49.2497Z" fill="#F3A250"/>
<path d="M64.6028 28.4965C64.0312 14.1848 52.7654 1.48356 39.4209 0.116007C26.0998 -1.22978 15.7475 9.28924 16.3184 23.5781C16.8902 37.8898 28.1786 50.5902 41.5222 51.9351C54.844 53.3035 65.1745 42.808 64.6028 28.4965Z" fill="#FFD475"/>
<path d="M39.2929 1.33416C27.4566 -0.0765545 16.9649 9.39924 17.5346 23.5275C18.0737 37.2328 28.892 49.4426 41.6411 50.7297C54.5976 51.9651 63.9167 41.8182 63.3822 28.5538C62.8429 14.8484 52.0246 2.63863 39.2929 1.33416ZM41.1018 46.225C30.7706 45.1815 22.0045 35.3371 21.5523 24.2926C21.1253 13.3571 28.8566 4.8797 39.8322 5.82144C50.1634 6.88238 58.9121 16.744 59.3643 27.7886C59.8208 39.418 51.1431 47.3415 41.1018 46.225Z" fill="#FFB961"/>
<path d="M58.1448 27.8393C57.7197 17.3488 49.4599 8.042 39.707 7.0349C29.9323 6.05131 22.3475 13.7467 22.7726 24.2372C23.1978 34.7277 31.4576 44.0344 41.2322 45.018C50.985 46.0251 58.5691 38.3071 58.1448 27.8393Z" fill="#F3A250"/>
<path d="M58.1467 27.8389C57.7216 17.3484 49.4618 8.04166 39.709 7.03456C34.0259 6.4601 29.0669 8.82406 26.0333 12.9711C29.0138 10.3885 32.9934 9.05847 37.4258 9.49973C47.1788 10.5068 55.4386 19.8136 55.8637 30.3041C56.0311 34.6679 54.8219 38.5638 52.6041 41.5473C56.222 38.4647 58.3888 33.5586 58.1467 27.8389ZM39.6324 51.6686C35.8696 50.9751 32.2981 49.3685 29.132 47.1124L23.0659 50.719C26.2329 52.9978 29.8035 54.5817 33.5664 55.2752L39.6324 51.6686ZM23.6147 42.0027C20.6973 38.5595 18.4645 34.4411 17.297 29.9798L11.2449 33.5782C12.4585 38.0604 14.6539 42.1654 17.5711 45.6084L23.6147 42.0027Z" fill="#DD8536"/>
<path d="M16.9334 16.6035L10.9126 20.2084C10.3853 22.4023 10.1807 24.7426 10.2744 27.1846C10.29 27.5915 10.3283 27.9976 10.3665 28.4037L16.3882 24.8215C16.3499 24.4154 16.3334 23.9858 16.3178 23.5787C16.2241 21.1368 16.4287 18.7966 16.9334 16.6035Z" fill="#DD8536"/>
<path d="M24.5391 17.181C24.6551 16.9291 25.0129 16.9324 25.1281 17.1854C25.722 18.4904 26.2344 19.5517 26.3248 19.5147C26.4071 19.4812 26.0369 18.3656 25.5566 17.0186C25.4634 16.7571 25.7169 16.5052 25.9752 16.604C28.6081 17.6112 31.0264 18.4868 31.0942 18.3246C31.1593 18.1687 28.8454 17.0307 26.2907 15.8365C26.0397 15.7192 26.0418 15.3598 26.2933 15.2448C27.583 14.655 28.6361 14.144 28.5991 14.053C28.5654 13.9703 27.4561 14.3391 26.1167 14.8177C25.8568 14.9106 25.6053 14.6552 25.7029 14.3959C28.2525 7.6235 27.9358 7.57307 24.9382 14.0768C24.8221 14.3286 24.4644 14.3254 24.3492 14.0724C23.7586 12.7749 23.2481 11.7149 23.166 11.7484C23.0756 11.7853 23.4461 12.9046 23.9294 14.2419C24.024 14.5035 23.7703 14.7567 23.5114 14.6577C20.8838 13.6537 18.455 12.7799 18.3899 12.9357C18.3221 13.0979 20.6444 14.2332 23.1953 15.4248C23.4461 15.5419 23.4443 15.9009 23.1933 16.0163C21.9001 16.6109 20.8445 17.1217 20.8782 17.2044C20.9152 17.2953 22.0279 16.9263 23.359 16.4404C23.6193 16.3455 23.8727 16.6011 23.7749 16.8613C21.2542 23.5636 21.5037 23.7724 24.5391 17.181Z" fill="white"/>
<g opacity="0.7">
<path d="M35.4336 39.5095C37.6778 40.8436 39.671 41.4395 39.189 42.3522C38.7121 43.2552 36.473 42.936 34.2289 41.6019C31.9848 40.2679 30.9179 38.4483 31.3948 37.5453C31.8768 36.6327 33.1896 38.1754 35.4336 39.5095Z" fill="white"/>
</g>
<g opacity="0.7">
<path d="M28.7919 34.925C29.1963 34.6093 29.8795 34.8111 30.3189 35.3618C30.7583 35.9124 30.7908 36.6076 30.3864 36.9232C29.9903 37.2324 29.3141 37.0395 28.8747 36.4889C28.4354 35.9382 28.3958 35.2341 28.7919 34.925Z" fill="white"/>
</g>
<path d="M31.4607 21.7879C31.5913 20.8795 32.2835 19.7095 33.1498 19.3164C33.4544 20.6245 32.7034 21.612 31.4607 21.7879ZM49.7198 30.2946C49.7198 30.2946 49.967 32.9642 47.7896 33.7178C45.6122 34.4713 49.7198 30.2946 49.7198 30.2946Z" fill="#DD8536"/>
<path d="M48.989 32.3167C48.9109 32.6244 48.7648 32.909 48.5539 33.1355C48.3589 33.3813 48.0974 33.5861 47.7896 33.7176C44.6405 34.8505 41.2924 35.8622 37.798 36.7395C36.3456 37.0266 35.2598 36.0306 35.0049 34.8655C34.112 30.9335 32.9432 26.9612 31.5721 23.1115C31.0764 21.7905 31.756 20.5728 32.9682 20.1914C36.4407 19.3646 39.6606 18.4294 42.5754 17.3815C43.5193 17.0388 44.8308 17.6786 45.3225 18.9726C46.7788 22.8468 48.0198 26.7904 49.0529 30.7165C49.2005 31.3614 49.1631 31.6879 48.989 32.3167Z" fill="#DD8536"/>
<path d="M48.3462 32.6916C45.1971 33.8245 41.8489 34.8361 38.3546 35.7135C36.9938 35.9824 35.8364 35.096 35.5615 33.8395C34.6686 29.9075 33.4997 25.9352 32.1286 22.0855C31.6364 20.7734 32.3017 19.5502 33.5248 19.1654C36.9972 18.3386 40.2171 17.4034 43.132 16.3555C44.0595 16.0188 45.3755 16.6214 45.879 17.9465C47.3354 21.8208 48.5763 25.7644 49.6095 29.6904C49.9233 31.0618 49.3283 32.272 48.3462 32.6916Z" fill="#F8F9FE"/>
<path d="M37.1208 34.8856C38.7271 31.9465 40.1411 28.9811 41.362 25.9893C43.9793 27.681 46.4861 29.3819 48.8861 31.0949C48.7528 31.5461 48.4557 31.8833 48.0719 32.0461C44.9868 33.1561 41.6936 34.156 38.1888 35.0392C37.8178 35.1214 37.4492 35.0862 37.1208 34.8856Z" fill="#B0B8CF"/>
<path d="M41.363 25.9882C42.5403 23.0825 43.5418 20.1396 44.3667 17.1602C44.7194 17.3475 45.0398 17.7125 45.2421 18.2069C46.6622 22.0175 47.8957 25.9038 48.9295 29.8654C49.0449 30.3083 49.0286 30.7337 48.8871 31.0938C46.4871 29.3817 43.9804 27.6803 41.363 25.9882Z" fill="#C9CEE2"/>
<path d="M44.3696 17.1527C43.5505 20.1381 42.5317 23.0861 41.3648 25.9923C38.63 24.2127 35.768 22.4549 32.7537 20.698C32.9416 20.2561 33.282 19.9655 33.735 19.8215C37.1621 19.0135 40.3795 18.0801 43.3634 17.0185C43.6929 16.9061 44.0342 16.958 44.3696 17.1527Z" fill="#E3E7F0"/>
<path d="M32.7593 20.6963C35.7604 22.4532 38.626 24.2183 41.363 25.9892C40.1417 28.9806 38.7284 31.9462 37.1219 34.8856C36.7147 34.6585 36.3597 34.2405 36.2505 33.6989C35.3218 29.6555 34.1598 25.7052 32.7806 21.8465C32.6221 21.442 32.6272 21.0353 32.7593 20.6963Z" fill="#C9CEE2"/>
<path d="M40.3838 28.2889C40.3838 28.2889 41.3705 25.9461 43.7497 27.5545C43.7497 27.5545 41.4353 26.0039 42.3023 23.5576C42.3023 23.5576 41.3576 25.9441 39.0417 24.5076C40.6068 25.4612 41.0756 26.7026 40.3838 28.2889Z" fill="#F1F6FA"/>
<path d="M12.2187 56.484C11.7943 56.8162 11.2572 57.018 10.6504 57.0323C10.5688 57.0344 10.4895 57.0331 10.4069 57.0294C9.9192 57.0032 9.4408 56.8583 9.00311 56.6245C8.72319 56.4754 8.45745 56.2888 8.22109 56.0679C7.79546 55.6798 7.44544 55.195 7.22466 54.6494C7.13742 54.4444 7.0741 54.2315 7.02528 54.0113C7.01379 53.9605 7.00468 53.9064 6.99604 53.8551C6.94423 53.5476 6.93184 53.248 6.95983 52.9621C7.03824 52.1757 7.40454 51.4989 7.96879 51.0583L7.26278 51.6136C6.69854 52.0543 6.33221 52.731 6.25667 53.5169C6.22583 53.8033 6.23822 54.1029 6.29003 54.4105C6.29867 54.4617 6.31016 54.5125 6.32164 54.5633C6.3676 54.784 6.43586 54.998 6.51742 55.2039C6.74439 55.7514 7.08945 56.2351 7.51507 56.6233C7.75144 56.8441 8.01433 57.0312 8.29425 57.1803C9.34675 57.7487 10.6085 57.7453 11.5098 57.0398L12.2187 56.484Z" fill="#F3A250"/>
<path d="M13.1876 53.6879C12.8811 51.8856 11.2472 50.4622 9.53563 50.5074C7.82736 50.555 6.68902 52.0559 6.99508 53.8554C7.30162 55.6577 8.93837 57.0806 10.6495 57.0326C12.3582 56.9878 13.4942 55.4902 13.1876 53.6879Z" fill="#FFD475"/>
<path d="M9.53963 50.6632C8.01825 50.6782 6.84519 52.0494 7.14848 53.8285C7.44096 55.5546 9.01017 56.9232 10.6451 56.8775C12.3054 56.8219 13.319 55.3849 13.0343 53.7146C12.7418 51.9885 11.1726 50.62 9.53963 50.6632ZM10.5031 56.3161C9.17825 56.353 7.90752 55.2503 7.66957 53.8596C7.43659 52.4823 8.27656 51.2827 9.68131 51.2224C11.0065 51.1876 12.2753 52.2928 12.5132 53.6835C12.7613 55.1481 11.7924 56.2931 10.5031 56.3161Z" fill="#FFB961"/>
<path d="M12.3596 53.7107C12.1342 52.3897 10.9363 51.3468 9.68527 51.3789C8.43184 51.4143 7.59763 52.5125 7.82309 53.8335C8.04855 55.1545 9.24639 56.1974 10.4998 56.162C11.7508 56.1299 12.5846 55.0288 12.3596 53.7107Z" fill="#F3A250"/>
<path d="M12.3599 53.7099C12.1345 52.389 10.9366 51.346 9.68558 51.3781C8.95679 51.3984 8.36774 51.7787 8.05158 52.3533C8.3866 51.9776 8.86861 51.7442 9.4369 51.7275C10.688 51.6954 11.8858 52.7384 12.1113 54.0593C12.2039 54.609 12.1145 55.1219 11.8826 55.5359C12.2901 55.0865 12.4842 54.43 12.3599 53.7099ZM10.4062 57.0293C9.91853 57.0031 9.44013 56.8582 9.00244 56.6244L8.29358 57.1802C8.73175 57.4168 9.20965 57.5589 9.69732 57.5851L10.4062 57.0293ZM8.22042 56.0679C7.79479 55.6797 7.44477 55.1949 7.22399 54.6493L6.51675 55.2038C6.74372 55.7514 7.08878 56.2351 7.5144 56.6232L8.22042 56.0679Z" fill="#DD8536"/>
<path d="M6.95899 52.962L6.25583 53.5168C6.22498 53.8032 6.23737 54.1027 6.28919 54.4103C6.29782 54.4616 6.30931 54.5124 6.3208 54.5632L7.02443 54.0112C7.01295 53.9604 7.00383 53.9063 6.99519 53.855C6.94338 53.5474 6.93099 53.2478 6.95899 52.962Z" fill="#DD8536"/>
<path d="M7.93167 52.9112C7.94223 52.8774 7.98759 52.872 8.0063 52.9022C8.10283 53.0576 8.18506 53.1836 8.1959 53.1774C8.20577 53.1718 8.14065 53.0367 8.05781 52.874C8.04174 52.8425 8.06971 52.8064 8.10403 52.8147C8.45378 52.8991 8.77423 52.9704 8.78016 52.9487C8.78585 52.9279 8.47433 52.8218 8.13141 52.7124C8.09771 52.7016 8.0921 52.6561 8.12205 52.6374C8.27565 52.5417 8.4006 52.4598 8.39443 52.4488C8.38882 52.4389 8.25442 52.5038 8.09271 52.5863C8.06133 52.6023 8.02531 52.5741 8.03343 52.5396C8.24536 51.6406 8.20445 51.6394 7.93141 52.5118C7.92083 52.5455 7.87549 52.551 7.85678 52.5208C7.76078 52.3663 7.67882 52.2404 7.66897 52.246C7.65814 52.2522 7.72335 52.3878 7.80641 52.5492C7.82266 52.5807 7.7947 52.6169 7.7603 52.6086C7.41126 52.5245 7.08951 52.4537 7.08381 52.4745C7.07789 52.4961 7.39043 52.6018 7.73283 52.7109C7.76649 52.7216 7.77214 52.7671 7.74226 52.7858C7.58829 52.8823 7.46303 52.9642 7.46865 52.9741C7.47481 52.985 7.60962 52.9201 7.77018 52.8368C7.80157 52.8205 7.83783 52.8487 7.8297 52.8833C7.62029 53.7729 7.65529 53.7953 7.93167 52.9112Z" fill="white"/>
<g opacity="0.7">
<path d="M9.67631 55.5593C9.98221 55.6914 10.2443 55.7342 10.1982 55.8577C10.1526 55.9798 9.86394 55.976 9.55803 55.8438C9.25214 55.7117 9.08732 55.4988 9.13292 55.3767C9.179 55.2533 9.37041 55.4271 9.67631 55.5593Z" fill="white"/>
</g>
<g opacity="0.7">
<path d="M8.76071 55.0877C8.80673 55.0411 8.89652 55.0555 8.96115 55.118C9.02578 55.1805 9.04128 55.268 8.99525 55.3146C8.95017 55.3602 8.86142 55.3468 8.79679 55.2843C8.73216 55.2218 8.71563 55.1333 8.76071 55.0877Z" fill="white"/>
</g>
<path d="M8.88321 53.3822C8.88488 53.2651 8.95336 53.1056 9.05659 53.0417C9.11655 53.2023 9.03765 53.3396 8.88321 53.3822ZM11.3337 54.1603C11.3337 54.1603 11.4087 54.4942 11.1454 54.6252C10.8821 54.7562 11.3337 54.1603 11.3337 54.1603Z" fill="#DD8536"/>
<path d="M11.274 54.428C11.2692 54.4682 11.2553 54.5066 11.2323 54.5388C11.2117 54.5731 11.1819 54.6033 11.1451 54.6249C10.765 54.8199 10.3577 55.0027 9.92976 55.1709C9.7506 55.2311 9.59686 55.1227 9.54553 54.9794C9.36817 54.4963 9.15521 54.0126 8.91867 53.5477C8.83431 53.3886 8.90042 53.2233 9.04762 53.1552C9.47365 52.9938 9.86594 52.8227 10.2178 52.6423C10.3317 52.5835 10.5081 52.6431 10.5915 52.7988C10.8393 53.2654 11.0609 53.7443 11.2559 54.2244C11.2851 54.3036 11.2857 54.3455 11.274 54.428Z" fill="#DD8536"/>
<path d="M11.1988 54.4853C10.8187 54.6803 10.4114 54.8631 9.98346 55.0313C9.8156 55.0877 9.65459 54.9944 9.59924 54.8398C9.42188 54.3567 9.20892 53.873 8.97237 53.4081C8.88859 53.2501 8.95279 53.0843 9.10132 53.0156C9.52736 52.8542 9.91965 52.6831 10.2715 52.5027C10.3834 52.4449 10.5598 52.4997 10.6452 52.6592C10.893 53.1258 11.1146 53.6047 11.3096 54.0848C11.3718 54.2532 11.3163 54.4162 11.1988 54.4853Z" fill="#F8F9FE"/>
<path d="M9.81451 54.9474C9.96975 54.5491 10.1002 54.1506 10.2058 53.7519C10.5648 53.9232 10.91 54.0975 11.2418 54.2751C11.2323 54.3344 11.2002 54.3819 11.1543 54.4088C10.7819 54.5998 10.3814 54.7803 9.9522 54.9494C9.90658 54.9659 9.85935 54.9675 9.81451 54.9474Z" fill="#B0B8CF"/>
<path d="M10.206 53.7513C10.3074 53.3642 10.3861 52.9753 10.4417 52.5846C10.4894 52.6026 10.536 52.6436 10.5697 52.7028C10.8118 53.1619 11.0315 53.6337 11.2272 54.1183C11.2491 54.1725 11.254 54.2266 11.2419 54.2745C10.9101 54.097 10.565 53.9227 10.206 53.7513Z" fill="#C9CEE2"/>
<path d="M10.4413 52.5843C10.3865 52.9756 10.3058 53.3655 10.2056 53.7525C9.8303 53.5719 9.43925 53.3963 9.02894 53.2232C9.04549 53.1642 9.08383 53.1218 9.13881 53.0962C9.55942 52.9378 9.95141 52.767 10.3118 52.5838C10.3516 52.5642 10.3957 52.5652 10.4413 52.5843Z" fill="#E3E7F0"/>
<path d="M9.03004 53.222C9.43867 53.3953 9.8303 53.5719 10.2057 53.7513C10.1001 54.1499 9.9697 54.5484 9.81444 54.9468C9.75917 54.9247 9.7074 54.8776 9.68472 54.8108C9.501 54.3142 9.28927 53.8332 9.05155 53.3673C9.02487 53.3187 9.01886 53.2671 9.03004 53.222Z" fill="#C9CEE2"/>
<path d="M10.1194 54.0594C10.1194 54.0594 10.2059 53.7467 10.5334 53.9113C10.5334 53.9113 10.2151 53.7529 10.2848 53.4291C10.2848 53.4291 10.2043 53.7466 9.88761 53.6027C10.1013 53.6978 10.181 53.8472 10.1194 54.0594Z" fill="#F1F6FA"/>
<path d="M13.8835 22.8789C12.9594 23.6021 11.7899 24.0414 10.4688 24.0727C10.2909 24.0772 10.1183 24.0744 9.93839 24.0664C8.87657 24.0093 7.83493 23.6937 6.8819 23.1847C6.27241 22.8601 5.6938 22.4538 5.17916 21.9729C4.25239 21.1278 3.49027 20.0722 3.00954 18.8842C2.81958 18.4379 2.68172 17.9743 2.57542 17.4948C2.55041 17.3842 2.53056 17.2664 2.51175 17.1547C2.39893 16.4851 2.37195 15.8327 2.43291 15.2103C2.60363 13.498 3.40121 12.0244 4.62979 11.065L3.09254 12.2741C1.86397 13.2336 1.06634 14.7071 0.901866 16.4184C0.834702 17.0419 0.861683 17.6942 0.974504 18.3639C0.993307 18.4755 1.01832 18.5861 1.04333 18.6967C1.14339 19.1772 1.29203 19.6432 1.46961 20.0916C1.9638 21.2838 2.71514 22.337 3.64187 23.182C4.15655 23.6629 4.72896 24.0703 5.33844 24.3949C7.63014 25.6325 10.3776 25.6251 12.34 24.0891L13.8835 22.8789Z" fill="#F3A250"/>
<path d="M15.9958 16.7896C15.3284 12.8653 11.7707 9.7659 8.04396 9.86438C4.32441 9.96802 1.84581 13.2361 2.51221 17.1541C3.17967 21.0784 6.7435 24.1768 10.4692 24.0721C14.1898 23.9747 16.6632 20.7138 15.9958 16.7896Z" fill="#FFD475"/>
<path d="M8.05211 10.2057C4.73949 10.2385 2.18529 13.2241 2.84566 17.0978C3.48251 20.8562 6.89928 23.8361 10.4591 23.7366C14.0742 23.6155 16.2813 20.4868 15.6614 16.8499C15.0245 13.0916 11.6077 10.1116 8.05211 10.2057ZM10.15 22.5142C7.26525 22.5947 4.49839 20.1936 3.98028 17.1656C3.473 14.1667 5.30194 11.5547 8.36061 11.4233C11.2459 11.3476 14.0086 13.7541 14.5267 16.7821C15.0669 19.9712 12.9573 22.4642 10.15 22.5142Z" fill="#FFB961"/>
<path d="M14.1917 16.8395C13.7007 13.9632 11.0926 11.6923 8.3686 11.7622C5.63941 11.8393 3.82301 14.2306 4.31392 17.1069C4.80483 19.9832 7.41299 22.2541 10.1421 22.1769C12.8661 22.1071 14.6815 19.7096 14.1917 16.8395Z" fill="#F3A250"/>
<path d="M14.193 16.8387C13.7021 13.9625 11.0939 11.6915 8.36991 11.7614C6.78306 11.8055 5.50046 12.6338 4.81206 13.8849C5.54154 13.0669 6.59105 12.5585 7.82844 12.5222C10.5525 12.4523 13.1606 14.7232 13.6515 17.5995C13.8532 18.7963 13.6586 19.9132 13.1537 20.8146C14.041 19.836 14.4635 18.4066 14.193 16.8387ZM9.93894 24.0664C8.87712 24.0093 7.83548 23.6937 6.88245 23.1846L5.33899 24.3948C6.29307 24.9101 7.33363 25.2195 8.39548 25.2765L9.93894 24.0664ZM5.17971 21.9728C4.25294 21.1277 3.49082 20.0722 3.01009 18.8841L1.47016 20.0915C1.96435 21.2837 2.71569 22.3369 3.64242 23.182L5.17971 21.9728Z" fill="#DD8536"/>
<path d="M2.43322 15.2102L0.902175 16.4183C0.835011 17.0418 0.861992 17.6941 0.974813 18.3638C0.993616 18.4755 1.01863 18.586 1.04363 18.6966L2.57572 17.4947C2.55071 17.3842 2.53087 17.2663 2.51206 17.1547C2.39924 16.485 2.37226 15.8327 2.43322 15.2102Z" fill="#DD8536"/>
<g opacity="0.7">
<path d="M8.34782 20.8648C9.01388 21.1525 9.5845 21.2458 9.48417 21.5145C9.38489 21.7804 8.75636 21.7722 8.0903 21.4844C7.42425 21.1966 7.06537 20.7331 7.16465 20.4673C7.26499 20.1985 7.68177 20.577 8.34782 20.8648Z" fill="white"/>
</g>
<g opacity="0.7">
<path d="M6.35416 19.8371C6.45438 19.7357 6.64989 19.767 6.79061 19.9031C6.93133 20.0393 6.96507 20.2297 6.86485 20.3311C6.76669 20.4304 6.57344 20.4014 6.43272 20.2652C6.292 20.1291 6.256 19.9365 6.35416 19.8371Z" fill="white"/>
</g>
<path d="M6.62223 16.1265C6.62587 15.8715 6.77497 15.5243 6.99974 15.3851C7.1303 15.7348 6.9585 16.0338 6.62223 16.1265ZM11.9579 17.8207C11.9579 17.8207 12.1212 18.5477 11.5479 18.8329C10.9746 19.1182 11.9579 17.8207 11.9579 17.8207Z" fill="#DD8536"/>
<path d="M11.8291 18.4041C11.8186 18.4917 11.7884 18.5753 11.7384 18.6453C11.6934 18.7199 11.6286 18.7857 11.5485 18.8329C10.7209 19.2574 9.83407 19.6555 8.9022 20.0218C8.5121 20.1527 8.17735 19.9168 8.0656 19.6048C7.67941 18.5528 7.21572 17.4996 6.70067 16.4874C6.517 16.141 6.66093 15.7811 6.98144 15.6328C7.90908 15.2812 8.76325 14.9087 9.52931 14.5161C9.77728 14.388 10.1615 14.5176 10.3432 14.8567C10.8826 15.8727 11.3651 16.9154 11.7898 17.9607C11.8534 18.1332 11.8547 18.2245 11.8291 18.4041Z" fill="#DD8536"/>
<path d="M11.6647 18.5303C10.8371 18.9547 9.95028 19.3528 9.0184 19.7192C8.65291 19.8418 8.30232 19.6387 8.1818 19.3021C7.79561 18.2502 7.33193 17.197 6.81688 16.1848C6.63445 15.8407 6.77424 15.4798 7.09765 15.3302C8.02529 14.9786 8.87945 14.6061 9.64552 14.2134C9.88916 14.0876 10.2734 14.2068 10.4594 14.5541C10.9988 15.57 11.4813 16.6128 11.906 17.6581C12.0413 18.0249 11.9204 18.3796 11.6647 18.5303Z" fill="#F8F9FE"/>
<path d="M8.64897 19.5351C8.98699 18.6677 9.27107 17.8 9.50099 16.9319C10.2827 17.305 11.0342 17.6844 11.7567 18.0711C11.7361 18.2002 11.6662 18.3037 11.5662 18.3623C10.7554 18.7781 9.88335 19.1711 8.94879 19.5394C8.84946 19.5752 8.74661 19.5787 8.64897 19.5351Z" fill="#B0B8CF"/>
<path d="M9.50103 16.9313C9.72199 16.0885 9.89318 15.2416 10.0144 14.391C10.1183 14.4301 10.2196 14.5193 10.293 14.6484C10.8201 15.6481 11.2986 16.6753 11.7247 17.7304C11.7722 17.8483 11.7829 17.9662 11.7567 18.0704C11.0342 17.6841 10.2827 17.3044 9.50103 16.9313Z" fill="#C9CEE2"/>
<path d="M10.0151 14.3893C9.89574 15.2413 9.71996 16.0902 9.50187 16.9328C8.68468 16.5397 7.83323 16.1572 6.93981 15.7803C6.97586 15.6518 7.05935 15.5596 7.17906 15.5037C8.09488 15.1589 8.9484 14.7871 9.73302 14.3882C9.81984 14.3454 9.91576 14.3476 10.0151 14.3893Z" fill="#E3E7F0"/>
<path d="M6.9412 15.7797C7.83094 16.157 8.68368 16.5414 9.50114 16.932C9.27108 17.8001 8.98719 18.6678 8.64913 19.5352C8.5288 19.4871 8.41606 19.3845 8.36668 19.2392C7.96666 18.1578 7.50564 17.1104 6.98804 16.096C6.92993 15.9901 6.91686 15.8778 6.9412 15.7797Z" fill="#C9CEE2"/>
<path d="M9.31384 17.6C9.31384 17.6 9.50234 16.9191 10.2154 17.2777C10.2154 17.2777 9.52227 16.9327 9.67409 16.2276C9.67409 16.2276 9.49873 16.919 8.80924 16.6056C9.27457 16.8127 9.44801 17.1381 9.31384 17.6Z" fill="#F1F6FA"/>
<path d="M50.8791 52.9729C50.0093 53.4396 48.9767 53.6356 47.8772 53.4715C47.7291 53.4497 47.5864 53.4225 47.4384 53.3901C46.5665 53.1901 45.7485 52.7788 45.0318 52.2199C44.5733 51.8632 44.1521 51.4432 43.7946 50.9707C43.1479 50.137 42.668 49.1525 42.4403 48.0986C42.347 47.7014 42.2994 47.2973 42.2802 46.8846C42.2754 46.7893 42.2759 46.6888 42.2763 46.5936C42.2791 46.0223 42.3505 45.4777 42.4905 44.9706C42.8782 43.5758 43.7511 42.4691 44.9074 41.8504L43.4594 42.6317C42.3031 43.2503 41.4301 44.357 41.0478 45.7518C40.9025 46.2589 40.8311 46.8035 40.8283 47.3748C40.8279 47.4701 40.8327 47.5653 40.8375 47.6605C40.8514 48.0732 40.9076 48.4809 40.9904 48.878C41.2286 49.9372 41.6999 50.9182 42.3466 51.7519C42.7041 52.2244 43.12 52.6444 43.5785 53.0011C45.3001 54.3564 47.5784 54.7452 49.4258 53.7541L50.8791 52.9729Z" fill="#F3A250"/>
<path d="M53.5043 48.2297C53.5153 44.881 51.012 41.8006 47.9089 41.3465C44.8109 40.8976 42.2867 43.2502 42.2758 46.5935C42.2649 49.9421 44.7734 53.0226 47.8766 53.4714C50.9745 53.9255 53.4934 51.5783 53.5043 48.2297Z" fill="#FFD475"/>
<path d="M47.867 41.6302C45.1166 41.1812 42.5703 43.2887 42.5608 46.5944C42.5483 49.8012 44.952 52.7623 47.9169 53.1916C50.9308 53.6109 53.21 51.3349 53.219 48.2313C53.2314 45.0246 50.8277 42.0634 47.867 41.6302ZM47.8364 52.134C45.4338 51.7859 43.4856 49.398 43.4915 46.8137C43.5021 44.2551 45.3936 42.353 47.9477 42.6838C50.3501 43.0359 52.2941 45.4276 52.2882 48.012C52.2775 50.7329 50.1706 52.4961 47.8364 52.134Z" fill="#FFB961"/>
<path d="M52.0033 48.0108C52.0099 45.5562 50.1745 43.299 47.9066 42.9653C45.6334 42.6369 43.7841 44.3578 43.7775 46.8124C43.7709 49.2671 45.6063 51.5243 47.8795 51.8527C50.1473 52.1864 51.9967 50.4602 52.0033 48.0108Z" fill="#F3A250"/>
<path d="M52.0029 48.01C52.0095 45.5554 50.1741 43.2981 47.9063 42.9645C46.5846 42.7729 45.4025 43.275 44.652 44.2131C45.3742 43.6399 46.3172 43.3694 47.3481 43.5172C49.616 43.8509 51.4514 46.1081 51.4448 48.5628C51.4398 49.5838 51.1181 50.4815 50.5699 51.156C51.4461 50.4725 52.0017 49.3484 52.0029 48.01ZM47.4379 53.3892C46.566 53.1893 45.7479 52.7779 45.0312 52.219L43.5779 53.0002C44.2946 53.5644 45.1126 53.9705 45.9846 54.1704L47.4379 53.3892ZM43.794 50.9698C43.1474 50.1361 42.6674 49.1516 42.4397 48.0977L40.9898 48.8772C41.228 49.9364 41.6993 50.9173 42.346 51.751L43.794 50.9698Z" fill="#DD8536"/>
<path d="M42.4909 44.9708L41.0482 45.752C40.9029 46.2591 40.8315 46.8037 40.8288 47.375C40.8283 47.4703 40.8331 47.5655 40.838 47.6607L42.2806 46.8848C42.2758 46.7895 42.2763 46.689 42.2768 46.5938C42.2795 46.0225 42.3509 45.4779 42.4909 44.9708Z" fill="#DD8536"/>
<path d="M44.2617 45.1815C44.2913 45.1239 44.3749 45.1283 44.3992 45.1885C44.5248 45.4993 44.6337 45.7524 44.6553 45.7447C44.6748 45.7377 44.5996 45.4734 44.501 45.1539C44.4819 45.0919 44.5436 45.0356 44.603 45.0613C45.2078 45.3231 45.7638 45.552 45.7813 45.5148C45.7981 45.4791 45.2691 45.1899 44.6844 44.8852C44.627 44.8552 44.6311 44.7713 44.691 44.747C44.9982 44.6222 45.2493 44.5135 45.2416 44.4919C45.2346 44.4722 44.9717 44.5472 44.6541 44.6455C44.5924 44.6645 44.5362 44.6023 44.5617 44.5428C45.2255 42.9866 45.1521 42.9716 44.3863 44.4605C44.3566 44.5182 44.2731 44.5138 44.2487 44.4535C44.1239 44.1445 44.0153 43.8918 43.9958 43.8988C43.9743 43.9065 44.0496 44.1716 44.149 44.4889C44.1684 44.551 44.1066 44.6075 44.0471 44.5818C43.4435 44.3208 42.885 44.0921 42.8682 44.1279C42.8508 44.1651 43.3817 44.4537 43.9655 44.7578C44.0229 44.7877 44.0189 44.8715 43.9591 44.8959C43.6511 45.0218 43.3993 45.1304 43.4064 45.1501C43.4141 45.1717 43.6777 45.0967 43.9935 44.9967C44.0553 44.9771 44.1119 45.0394 44.0864 45.0992C43.43 46.6392 43.4862 46.6905 44.2617 45.1815Z" fill="white"/>
<g opacity="0.7">
<path d="M46.5805 50.5073C47.0912 50.8415 47.5507 51.0008 47.4289 51.2091C47.3084 51.4153 46.7886 51.3181 46.2779 50.9838C45.7672 50.6496 45.5364 50.2138 45.6569 50.0077C45.7787 49.7994 46.0698 50.173 46.5805 50.5073Z" fill="white"/>
</g>
<g opacity="0.7">
<path d="M45.0748 49.3697C45.1725 49.3001 45.33 49.3541 45.4271 49.4872C45.5242 49.6202 45.5248 49.7829 45.4271 49.8526C45.3315 49.9208 45.1755 49.8689 45.0784 49.7359C44.9813 49.6028 44.9792 49.4379 45.0748 49.3697Z" fill="white"/>
</g>
<path d="M45.8286 46.3331C45.8682 46.1223 46.0417 45.856 46.2481 45.7729C46.306 46.0815 46.1206 46.3046 45.8286 46.3331ZM50.0076 48.5044C50.0076 48.5044 50.0384 49.1305 49.5222 49.2845C49.006 49.4385 50.0076 48.5044 50.0076 48.5044Z" fill="#DD8536"/>
<path d="M49.816 48.9696C49.7947 49.0407 49.7577 49.1057 49.7061 49.1564C49.6581 49.2119 49.5949 49.2571 49.5217 49.2847C48.7747 49.5175 47.9825 49.72 47.1574 49.8897C46.8153 49.9421 46.5717 49.6985 46.5239 49.4238C46.3551 48.4963 46.1221 47.5567 45.8407 46.6437C45.7383 46.3301 45.9093 46.0525 46.1963 45.9757C47.0157 45.8176 47.7773 45.6316 48.4687 45.4163C48.6926 45.3458 48.9925 45.5085 49.0943 45.8157C49.3954 46.7353 49.6454 47.669 49.8471 48.5964C49.8751 48.7486 49.863 48.8244 49.816 48.9696Z" fill="#DD8536"/>
<path d="M49.6623 49.0504C48.9153 49.2832 48.1231 49.4857 47.298 49.6554C46.9774 49.7045 46.7161 49.4857 46.6645 49.1895C46.4957 48.262 46.2627 47.3224 45.9813 46.4094C45.8796 46.0979 46.0473 45.8189 46.3369 45.7414C47.1563 45.5833 47.9179 45.3973 48.6093 45.182C48.8293 45.1127 49.1307 45.2668 49.2349 45.5814C49.536 46.501 49.786 47.4347 49.9877 48.3621C50.0472 48.6856 49.896 48.9623 49.6623 49.0504Z" fill="#F8F9FE"/>
<path d="M47.0186 49.4501C47.4235 48.7798 47.7837 48.1014 48.099 47.4149C48.6933 47.8365 49.2617 48.259 49.805 48.6834C49.7693 48.7874 49.6965 48.8632 49.6052 48.8973C48.8734 49.1255 48.0941 49.3258 47.2665 49.4967C47.179 49.5122 47.0933 49.5002 47.0186 49.4501Z" fill="#B0B8CF"/>
<path d="M48.0984 47.4146C48.4027 46.7478 48.6663 46.0705 48.8891 45.3829C48.9696 45.4302 49.0407 45.5187 49.083 45.6362C49.3762 46.5406 49.6251 47.4608 49.8266 48.3966C49.8491 48.5012 49.841 48.6004 49.8043 48.6831C49.261 48.2589 48.6927 47.8362 48.0984 47.4146Z" fill="#C9CEE2"/>
<path d="M48.89 45.381C48.6685 46.0701 48.4008 46.7484 48.0989 47.4154C47.4781 46.9721 46.8273 46.5327 46.141 46.0919C46.1893 45.9906 46.2718 45.9261 46.379 45.897C47.1877 45.7429 47.9486 45.5574 48.6563 45.3395C48.7344 45.3166 48.8136 45.3322 48.89 45.381Z" fill="#E3E7F0"/>
<path d="M46.1431 46.0918C46.8263 46.5325 47.4779 46.9737 48.0993 47.415C47.7838 48.1014 47.4238 48.7798 47.0189 49.4501C46.9261 49.393 46.8474 49.2918 46.8273 49.1642C46.6512 48.2104 46.4197 47.2759 46.1365 46.3607C46.1035 46.2646 46.1088 46.1697 46.1431 46.0918Z" fill="#C9CEE2"/>
<path d="M47.8468 47.9419C47.8468 47.9419 48.1009 47.4046 48.6404 47.8043C48.6404 47.8043 48.1155 47.4188 48.3427 46.8562C48.3427 46.8562 48.0979 47.4041 47.5715 47.0451C47.9274 47.2837 48.0244 47.5784 47.8468 47.9419Z" fill="#F1F6FA"/>
</svg>
