<svg width="10" height="10" viewBox="0 0 10 10" fill="none" xmlns="http://www.w3.org/2000/svg">
<path d="M5.16922 2.84065L1.06299 6.94688V9L3.11611 8.99999L7.22233 4.89376M5.16922 2.84065L6.64163 1.36823L6.64252 1.36735C6.8452 1.16467 6.94672 1.06315 7.06375 1.02512C7.16684 0.991626 7.2779 0.991626 7.38099 1.02512C7.49793 1.06312 7.59934 1.16453 7.80173 1.36692L8.69474 2.25993C8.898 2.46319 8.99968 2.56487 9.03776 2.68207C9.07126 2.78516 9.07125 2.8962 9.03775 2.99929C8.9997 3.1164 8.89817 3.21793 8.6952 3.42091L8.69475 3.42134L7.22233 4.89376M5.16922 2.84065L7.22233 4.89376" stroke="#B379FF" stroke-linecap="round" stroke-linejoin="round"/>
</svg>
