<svg width="359" height="149" viewBox="0 0 359 149" fill="none" xmlns="http://www.w3.org/2000/svg">
<path opacity="0.32" d="M-18.6207 260.941C-18.6207 238.196 -21.3994 212.094 -11.9155 191.039C-5.43073 176.642 4.51022 163.645 14.1951 151.32C27.4073 134.505 41.4683 118.166 58.9223 105.612C81.1356 89.6335 106.007 76.5707 131.89 67.7051C153.092 60.4429 186.477 52.7532 201.229 74.2462C209.556 86.3785 213.831 102.211 215.586 116.566C219.158 145.781 219.987 175.483 214.56 204.515C207.438 242.621 192.263 289.588 158.158 311.93C141.193 323.044 105.778 330.997 89.1348 314.846C70.1445 296.416 65.0447 261.012 62.472 236.275C60.6758 219.002 59.5664 200.385 61.5254 183.079C63.8971 162.129 73.1775 140.181 81.9564 121.137C106.333 68.2554 138.438 23.9151 183.48 -13.3091C215.184 -39.5098 249.288 -62.485 291.551 -62.485C322.156 -62.485 346.025 -39.6813 362.073 -15.5157C378.584 9.34624 378.993 42.2678 377.377 70.9362C376.032 94.7826 365.899 118.879 348.663 135.716C330.023 153.925 291.644 166.93 267.097 152.975C225.076 129.085 227.389 67.7267 230.179 26.9616C232.11 -1.24544 241.062 -28.1944 249.9 -54.8407C257.229 -76.9353 265.117 -99.8471 276.405 -120.33C282.442 -131.283 286.708 -135.32 298.808 -138.298C317.286 -142.846 337.315 -141.923 356.236 -141.923" stroke="#EDAD85" stroke-linecap="round" stroke-dasharray="11 11"/>
</svg>
