<svg width="20" height="20" viewBox="0 0 20 20" fill="none" xmlns="http://www.w3.org/2000/svg">
<path d="M15.7151 16.858C14.4752 17.5937 12.981 17.9448 11.3662 17.7748C11.1488 17.7522 10.9389 17.7216 10.7209 17.6836C9.43602 17.4468 8.21645 16.8982 7.13533 16.1278C6.44378 15.6363 5.80273 15.05 5.25136 14.383C4.25516 13.2073 3.49276 11.801 3.09409 10.2776C2.93291 9.70389 2.83795 9.11725 2.78393 8.51624C2.77087 8.37757 2.76524 8.23087 2.75991 8.09186C2.72792 7.25805 2.79778 6.45894 2.97009 5.71007C3.44781 3.65046 4.65178 1.9805 6.29995 1.00488L4.23633 2.23613C2.58816 3.21179 1.38414 4.8817 0.914198 6.94102C0.734157 7.69018 0.664294 8.48929 0.696286 9.32315C0.701618 9.46212 0.714678 9.60079 0.727738 9.73946C0.773979 10.3408 0.881706 10.932 1.02748 11.5063C1.4419 13.0369 2.19154 14.4386 3.18769 15.6143C3.7391 16.2813 4.37243 16.8679 5.06398 17.3594C7.66155 19.2284 11.0105 19.6521 13.6437 18.0895L15.7151 16.858Z" fill="#F3A250"/>
<path d="M19.247 9.77161C19.0518 4.88465 15.2049 0.547603 10.6482 0.0806283C6.09949 -0.378913 2.56453 3.21298 2.75946 8.09216C2.95469 12.9791 6.80933 17.3159 11.3657 17.7751C15.9147 18.2424 19.4422 14.6585 19.247 9.77161Z" fill="#FFD475"/>
<path d="M10.6048 0.496631C6.56315 0.0149185 2.98056 3.25059 3.17512 8.0749C3.35919 12.7548 7.05328 16.9241 11.4067 17.3636C15.8309 17.7854 19.013 14.3206 18.8305 9.79123C18.6464 5.11131 14.9523 0.942062 10.6048 0.496631ZM11.2225 15.8254C7.69475 15.469 4.70143 12.1075 4.54701 8.33619C4.4012 4.60206 7.04121 1.70731 10.789 2.02889C14.3168 2.39116 17.3041 5.75858 17.4586 9.52995C17.6144 13.501 14.6513 16.2066 11.2225 15.8254Z" fill="#FFB961"/>
<path d="M17.0421 9.54698C16.8969 5.96483 14.0765 2.78688 10.7462 2.44299C7.40849 2.10712 4.81853 4.73485 4.9637 8.317C5.10888 11.8991 7.92931 15.0771 11.267 15.413C14.5973 15.7569 17.187 13.1214 17.0421 9.54698Z" fill="#F3A250"/>
<path d="M17.0427 9.5472C16.8976 5.96505 14.0771 2.7871 10.7468 2.4432C8.80628 2.24704 7.11295 3.05426 6.07707 4.47034C7.0948 3.58847 8.45372 3.1343 9.96723 3.28498C13.2975 3.62887 16.118 6.80682 16.2632 10.389C16.3203 11.8791 15.9074 13.2094 15.1501 14.2282C16.3855 13.1756 17.1254 11.5003 17.0427 9.5472ZM10.7207 17.6842C9.43585 17.4474 8.21628 16.8988 7.13517 16.1285L5.06382 17.36C6.14523 18.1381 7.36445 18.679 8.64936 18.9158L10.7207 17.6842ZM5.25119 14.3836C4.25499 13.2079 3.49259 11.8016 3.09393 10.2782L1.02731 11.507C1.44173 13.0375 2.19137 14.4392 3.18752 15.6149L5.25119 14.3836Z" fill="#DD8536"/>
<path d="M2.96954 5.70996L0.913649 6.94091C0.733608 7.69007 0.663745 8.48918 0.695737 9.32304C0.701068 9.462 0.714128 9.60068 0.727188 9.73935L2.78338 8.51613C2.77032 8.37746 2.76469 8.23076 2.75936 8.09174C2.72737 7.25794 2.79723 6.45882 2.96954 5.70996Z" fill="#DD8536"/>
<path d="M5.56712 5.90799C5.60674 5.82196 5.72894 5.82309 5.76826 5.90948C5.97105 6.3551 6.14601 6.71749 6.1769 6.70488C6.205 6.69342 6.07858 6.31248 5.91457 5.85252C5.88274 5.76325 5.96932 5.67722 6.05753 5.71097C6.95656 6.05489 7.78233 6.35386 7.80547 6.29848C7.82772 6.24525 7.03761 5.85668 6.16526 5.44889C6.07954 5.40882 6.08027 5.2861 6.16613 5.24683C6.60652 5.04543 6.96613 4.87094 6.95349 4.83988C6.942 4.81164 6.56319 4.93756 6.10585 5.10101C6.01709 5.13273 5.93122 5.0455 5.96454 4.95698C6.83514 2.64442 6.72701 2.6272 5.70343 4.84799C5.66379 4.934 5.54163 4.93289 5.50231 4.8465C5.30063 4.40345 5.12632 4.04149 5.09826 4.05294C5.06741 4.06552 5.19392 4.44774 5.35896 4.90439C5.39124 4.99372 5.30463 5.08016 5.21621 5.04637C4.31898 4.70354 3.48962 4.40515 3.46738 4.45837C3.44425 4.51373 4.23722 4.90139 5.10827 5.30829C5.19391 5.34829 5.19329 5.47088 5.1076 5.51028C4.66602 5.71333 4.30557 5.88773 4.31707 5.91598C4.32969 5.947 4.70963 5.82103 5.16419 5.65511C5.25305 5.62268 5.33959 5.70998 5.30617 5.79883C4.44546 8.08742 4.53066 8.15874 5.56712 5.90799Z" fill="white"/>
<g opacity="0.7">
<path d="M9.28676 13.5321C10.0531 13.9877 10.7337 14.1912 10.5691 14.5028C10.4063 14.8111 9.64167 14.7022 8.87537 14.2466C8.1091 13.7911 7.7448 13.1698 7.90765 12.8614C8.07224 12.5498 8.52049 13.0766 9.28676 13.5321Z" fill="white"/>
</g>
<g opacity="0.7">
<path d="M7.0194 11.9671C7.15749 11.8593 7.39079 11.9282 7.54083 12.1162C7.69086 12.3043 7.70198 12.5417 7.56389 12.6494C7.42864 12.755 7.19774 12.6891 7.0477 12.5011C6.89767 12.3131 6.88415 12.0726 7.0194 11.9671Z" fill="white"/>
</g>
<path d="M7.93103 7.48065C7.97564 7.17048 8.21199 6.77095 8.50781 6.63672C8.61182 7.08337 8.35539 7.4206 7.93103 7.48065ZM14.1659 10.3854C14.1659 10.3854 14.2503 11.297 13.5068 11.5543C12.7633 11.8116 14.1659 10.3854 14.1659 10.3854Z" fill="#DD8536"/>
<path d="M13.9166 11.0764C13.8899 11.1815 13.84 11.2787 13.768 11.356C13.7014 11.4399 13.6121 11.5099 13.507 11.5548C12.4317 11.9416 11.2884 12.2871 10.0952 12.5867C9.59924 12.6847 9.22848 12.3446 9.14145 11.9468C8.83655 10.6041 8.43742 9.2477 7.96924 7.93316C7.8 7.48208 8.03206 7.06626 8.44597 6.93602C9.6317 6.65371 10.7312 6.33436 11.7265 5.97655C12.0488 5.85953 12.4967 6.07799 12.6645 6.51984C13.1618 7.84277 13.5856 9.18938 13.9384 10.53C13.9888 10.7502 13.976 10.8617 13.9166 11.0764Z" fill="#DD8536"/>
<path d="M13.6972 11.2043C12.6219 11.5912 11.4787 11.9366 10.2854 12.2362C9.82077 12.328 9.42556 12.0253 9.33171 11.5963C9.0268 10.2536 8.62767 8.89723 8.1595 7.5827C7.9914 7.13466 8.21858 6.71696 8.63623 6.58556C9.82196 6.30324 10.9214 5.98389 11.9168 5.62608C12.2335 5.5111 12.6829 5.71688 12.8548 6.16937C13.3521 7.4923 13.7758 8.83891 14.1286 10.1795C14.2358 10.6478 14.0326 11.061 13.6972 11.2043Z" fill="#F8F9FE"/>
<path d="M9.86395 11.9538C10.4124 10.9502 10.8953 9.93764 11.3122 8.91602C12.2059 9.49369 13.0619 10.0745 13.8814 10.6594C13.8359 10.8135 13.7344 10.9286 13.6034 10.9842C12.5499 11.3632 11.4254 11.7047 10.2286 12.0063C10.1019 12.0343 9.97606 12.0223 9.86395 11.9538Z" fill="#B0B8CF"/>
<path d="M11.3129 8.91585C11.7149 7.92366 12.0569 6.91876 12.3386 5.90137C12.459 5.96536 12.5684 6.08999 12.6375 6.2588C13.1224 7.55998 13.5436 8.88703 13.8966 10.2398C13.936 10.391 13.9304 10.5363 13.8822 10.6592C13.0626 10.0746 12.2067 9.49363 11.3129 8.91585Z" fill="#C9CEE2"/>
<path d="M12.3394 5.89786C12.0597 6.91724 11.7118 7.92391 11.3134 8.91629C10.3795 8.30859 9.40226 7.70838 8.37296 7.10846C8.43712 6.95756 8.55338 6.85832 8.70804 6.80915C9.8783 6.53324 10.9769 6.21453 11.9958 5.85203C12.1083 5.81365 12.2249 5.83136 12.3394 5.89786Z" fill="#E3E7F0"/>
<path d="M8.37477 7.1084C9.39952 7.70834 10.3781 8.31106 11.3126 8.91575C10.8956 9.93723 10.413 10.9499 9.86444 11.9536C9.72539 11.876 9.60417 11.7333 9.5669 11.5484C9.24977 10.1677 8.85298 8.81876 8.38204 7.50114C8.3279 7.36304 8.32965 7.22415 8.37477 7.1084Z" fill="#C9CEE2"/>
<path d="M10.9783 9.70053C10.9783 9.70053 11.3152 8.90056 12.1276 9.44975C12.1276 9.44975 11.3373 8.92029 11.6334 8.08496C11.6334 8.08496 11.3108 8.89988 10.52 8.40935C11.0544 8.73498 11.2145 9.15886 10.9783 9.70053Z" fill="#F1F6FA"/>
</svg>
