<svg width="17" height="14" viewBox="0 0 17 14" fill="none" xmlns="http://www.w3.org/2000/svg">
<path d="M15.9855 11.038L13.3329 13.8093C13.2752 13.8695 13.2055 13.9175 13.1279 13.9503C13.0504 13.9831 12.9668 14 12.8823 14H0.307941C0.247942 14 0.18925 13.9829 0.139078 13.9509C0.0889046 13.9188 0.0494359 13.8732 0.0255207 13.8196C0.00160559 13.766 -0.00571424 13.7067 0.00446062 13.6491C0.0146355 13.5915 0.0418617 13.5381 0.0827944 13.4953L2.73733 10.724C2.79485 10.664 2.86438 10.6161 2.94165 10.5833C3.01894 10.5505 3.1023 10.5335 3.18661 10.5333H15.7602C15.8202 10.5333 15.8789 10.5504 15.9291 10.5825C15.9792 10.6145 16.0187 10.6602 16.0427 10.7138C16.0666 10.7674 16.0739 10.8266 16.0637 10.8842C16.0535 10.9418 16.0263 10.9953 15.9855 11.038ZM13.3329 5.45733C13.2752 5.39713 13.2055 5.34913 13.1279 5.31633C13.0504 5.28354 12.9668 5.26662 12.8823 5.26667H0.307941C0.247942 5.26667 0.18925 5.28374 0.139078 5.3158C0.0889046 5.34786 0.0494359 5.39348 0.0255207 5.44708C0.00160559 5.5007 -0.00571424 5.55994 0.00446062 5.61755C0.0146355 5.67514 0.0418617 5.72859 0.0827944 5.77134L2.73733 8.54267C2.79485 8.60271 2.86438 8.6506 2.94165 8.6834C3.01894 8.71619 3.1023 8.7332 3.18661 8.73333H15.7602C15.8202 8.73333 15.8789 8.71626 15.9291 8.6842C15.9792 8.65214 16.0187 8.60652 16.0427 8.55292C16.0666 8.4993 16.0739 8.44006 16.0637 8.38245C16.0535 8.32486 16.0263 8.27141 15.9855 8.22866L13.3329 5.45733ZM0.307941 3.46667H12.8823C12.9668 3.4667 13.0504 3.44981 13.1279 3.417C13.2055 3.3842 13.2752 3.3362 13.3329 3.276L15.9855 0.504667C16.0263 0.461932 16.0535 0.408479 16.0637 0.350875C16.0739 0.293271 16.0666 0.234028 16.0427 0.180422C16.0187 0.126816 15.9792 0.0811834 15.9291 0.0491309C15.8789 0.0170782 15.8202 1.9739e-06 15.7602 0H3.18661C3.1023 0.000139745 3.01894 0.0171339 2.94165 0.0499304C2.86438 0.0827269 2.79485 0.130627 2.73733 0.190667L0.0834787 2.962C0.0425856 3.00469 0.0153713 3.05809 0.0051734 3.11562C-0.00502455 3.17316 0.0022372 3.23236 0.026068 3.28594C0.0498989 3.33952 0.0892629 3.38515 0.139332 3.41726C0.189402 3.44936 0.248 3.46653 0.307941 3.46667Z" fill="white"/>
</svg>
