<svg width="45" height="45" viewBox="0 0 45 45" fill="none" xmlns="http://www.w3.org/2000/svg">
<g clip-path="url(#clip0_589_2229)">
<path d="M34.8252 34.6085C32.7001 36.2717 30.0105 37.282 26.9721 37.3539C26.5631 37.3642 26.1661 37.3577 25.7523 37.3395C23.3103 37.2082 20.9148 36.4824 18.723 35.3117C17.3213 34.5651 15.9906 33.6307 14.8071 32.5248C12.6757 30.5813 10.923 28.1537 9.81738 25.4214C9.3805 24.395 9.06346 23.3288 8.81898 22.2261C8.76146 21.9718 8.71582 21.7008 8.67256 21.4441C8.41311 19.9039 8.35106 18.4037 8.49125 16.9722C8.88387 13.0342 10.7181 9.64534 13.5436 7.4388L10.0083 10.2196C7.1828 12.4262 5.34842 15.815 4.97016 19.7506C4.8157 21.1845 4.87775 22.6847 5.13721 24.2249C5.18046 24.4816 5.23797 24.7359 5.29549 24.9902C5.52561 26.0953 5.86745 27.167 6.27586 28.1982C7.4124 30.9399 9.14032 33.3621 11.2716 35.3056C12.4553 36.4115 13.7717 37.3484 15.1734 38.0949C20.4438 40.9412 26.7623 40.9241 31.2755 37.3916L34.8252 34.6085Z" fill="#F3A250"/>
<path d="M39.6822 20.6064C38.1473 11.5814 29.9655 4.45335 21.3946 4.67983C12.8404 4.91819 7.14018 12.4342 8.67277 21.4448C10.2078 30.4698 18.4039 37.5954 26.9723 37.3547C35.5288 37.1306 41.2172 29.6313 39.6822 20.6064Z" fill="#FFD475"/>
<path d="M21.4136 5.46267C13.7953 5.53822 7.92113 12.4043 9.43985 21.3132C10.9045 29.9566 18.7623 36.8098 26.9492 36.5811C35.2632 36.3026 40.339 29.1071 38.9135 20.7429C37.4487 12.0996 29.5908 5.24641 21.4136 5.46267ZM26.2383 33.7698C19.604 33.9548 13.2408 28.4329 12.0492 21.4691C10.8826 14.5723 15.0888 8.56518 22.1231 8.26288C28.7588 8.08892 35.1124 13.6232 36.3039 20.5871C37.5461 27.9213 32.6947 33.6548 26.2383 33.7698Z" fill="#FFB961"/>
<path d="M35.5347 20.7186C34.4058 14.1037 28.4075 8.88109 22.1429 9.04178C15.8663 9.21916 11.689 14.7186 12.818 21.3334C13.947 27.9483 19.9452 33.1709 26.2217 32.9935C32.4863 32.8328 36.6613 27.3191 35.5347 20.7186Z" fill="#F3A250"/>
<path d="M35.5363 20.7181C34.4073 14.1032 28.4091 8.88062 22.1444 9.04131C18.495 9.14279 15.5453 11.0476 13.9621 13.9248C15.6398 12.0436 18.0534 10.8744 20.8992 10.791C27.1639 10.6303 33.1621 15.8529 34.2911 22.4678C34.7548 25.2202 34.3074 27.7888 33.1461 29.8617C35.1868 27.6113 36.1584 24.3238 35.5363 20.7181ZM25.7529 37.3401C23.3109 37.2089 20.9154 36.4831 18.7236 35.3124L15.1739 38.0956C17.3681 39.2805 19.7612 39.992 22.2032 40.1233L25.7529 37.3401ZM14.8076 32.5255C12.6762 30.5819 10.9235 28.1543 9.81795 25.4221L6.27644 28.1989C7.41297 30.9406 9.14089 33.3628 11.2722 35.3063L14.8076 32.5255Z" fill="#DD8536"/>
<path d="M8.49124 16.9731L4.97015 19.7515C4.81569 21.1854 4.87774 22.6856 5.13721 24.2258C5.18045 24.4825 5.23797 24.7368 5.29548 24.9911L8.81897 22.227C8.76146 21.9727 8.71581 21.7017 8.67255 21.445C8.4131 19.9048 8.35105 18.4046 8.49124 16.9731Z" fill="#DD8536"/>
<g opacity="0.7">
<path d="M22.095 29.9776C23.6268 30.6394 24.9391 30.8538 24.7084 31.4718C24.48 32.0833 23.0346 32.0644 21.5027 31.4027C19.971 30.7409 19.1456 29.6749 19.374 29.0634C19.6047 28.4455 20.5632 29.3158 22.095 29.9776Z" fill="white"/>
</g>
<g opacity="0.7">
<path d="M17.5094 27.6154C17.7399 27.3822 18.1895 27.4541 18.5132 27.7671C18.8368 28.0802 18.9144 28.5182 18.6839 28.7514C18.4582 28.9798 18.0137 28.9129 17.6901 28.5999C17.3665 28.2869 17.2837 27.8438 17.5094 27.6154Z" fill="white"/>
</g>
<path d="M18.1251 19.0696C18.1335 18.4831 18.4764 17.6847 18.9933 17.3645C19.2936 18.1687 18.8984 18.8563 18.1251 19.0696ZM30.3961 22.9657C30.3961 22.9657 30.7715 24.6377 29.4531 25.2938C28.1346 25.9498 30.3961 22.9657 30.3961 22.9657Z" fill="#DD8536"/>
<path d="M30.0985 24.3073C30.0742 24.5088 30.0049 24.7012 29.8898 24.862C29.7863 25.0338 29.6373 25.185 29.453 25.2936C27.5497 26.2698 25.5102 27.1853 23.3671 28.0278C22.47 28.3287 21.7001 27.7864 21.4431 27.0687C20.5549 24.6495 19.4886 22.2273 18.304 19.8994C17.8816 19.1026 18.2127 18.2751 18.9498 17.934C21.0831 17.1254 23.0475 16.2688 24.8093 15.3657C25.3796 15.0712 26.2633 15.3692 26.681 16.1492C27.9216 18.4857 29.0313 20.8838 30.0079 23.2877C30.1543 23.6844 30.1573 23.8945 30.0985 24.3073Z" fill="#DD8536"/>
<path d="M29.7218 24.5976C27.8184 25.5737 25.779 26.4893 23.6359 27.3317C22.7953 27.6137 21.989 27.1466 21.7119 26.3727C20.8237 23.9534 19.7573 21.5312 18.5728 19.2033C18.1533 18.412 18.4748 17.5821 19.2185 17.2379C21.3519 16.4293 23.3163 15.5727 25.0781 14.6697C25.6385 14.3802 26.5221 14.6544 26.9498 15.4531C28.1904 17.7896 29.3001 20.1877 30.2767 22.5917C30.5879 23.4352 30.3099 24.2511 29.7218 24.5976Z" fill="#F8F9FE"/>
<path d="M22.7862 26.9078C23.5636 24.9131 24.2169 22.9176 24.7457 20.9211C26.5434 21.779 28.2717 22.6517 29.9333 23.5409C29.8859 23.8379 29.7251 24.076 29.4952 24.2106C27.6305 25.167 25.625 26.0706 23.4757 26.9176C23.2473 27.0001 23.0107 27.008 22.7862 26.9078Z" fill="#B0B8CF"/>
<path d="M24.7461 20.9211C25.2543 18.9828 25.648 17.0353 25.9268 15.0791C26.1657 15.169 26.3987 15.3741 26.5675 15.6709C27.7798 17.97 28.8801 20.3324 29.86 22.7589C29.9694 23.0301 29.994 23.3012 29.9338 23.541C28.2722 22.6524 26.5438 21.7792 24.7461 20.9211Z" fill="#C9CEE2"/>
<path d="M25.9283 15.0738C25.6537 17.0332 25.2495 18.9854 24.7479 20.9232C22.8685 20.0192 20.9104 19.1395 18.8557 18.2728C18.9386 17.9773 19.1306 17.7652 19.4059 17.6368C21.5121 16.8438 23.475 15.9886 25.2795 15.0712C25.4792 14.9729 25.6998 14.9778 25.9283 15.0738Z" fill="#E3E7F0"/>
<path d="M18.859 18.2712C20.9052 19.139 22.8663 20.0231 24.7463 20.9214C24.2172 22.9177 23.5643 24.9132 22.7869 26.9081C22.5101 26.7975 22.2509 26.5616 22.1373 26.2273C21.2173 23.7403 20.1571 21.3315 18.9667 18.9986C18.8331 18.7552 18.803 18.4969 18.859 18.2712Z" fill="#C9CEE2"/>
<path d="M24.3142 22.4594C24.3142 22.4594 24.7477 20.8935 26.3876 21.7181C26.3876 21.7181 24.7935 20.9249 25.1427 19.3032C25.1427 19.3032 24.7394 20.8933 23.1537 20.1725C24.2239 20.6487 24.6228 21.3972 24.3142 22.4594Z" fill="#F1F6FA"/>
</g>
<defs>
<clipPath id="clip0_589_2229">
<rect width="40.02" height="40.02" fill="white" transform="translate(0 5.12988) rotate(-7.36495)"/>
</clipPath>
</defs>
</svg>
